<?xml version="1.0" encoding="utf-8"?>
<!-- Generator: Adobe Illustrator 18.1.1, SVG Export Plug-In . SVG Version: 6.00 Build 0)  -->
<svg version="1.1" id="Layer_1" xmlns="http://www.w3.org/2000/svg" xmlns:xlink="http://www.w3.org/1999/xlink" x="0px" y="0px"
	 viewBox="0 0 360 360" enable-background="new 0 0 360 360" xml:space="preserve">
<g>
	<defs>
		<rect id="SVGID_1_" x="0.5" y="-1.5" width="360" height="360"/>
	</defs>
	<clipPath id="SVGID_2_">
		<use xlink:href="#SVGID_1_"  overflow="visible"/>
	</clipPath>
	<g clip-path="url(#SVGID_2_)">
		
			<image overflow="visible" width="1920" height="1080" xlink:href="art.jpg"  transform="matrix(0.4008 0 0 0.4008 -107.4578 -26.3844)">
		</image>
	</g>
</g>
<rect x="3.8" opacity="0.1" width="356.2" height="363.4"/>
<g>
	<g>
		<g>
			<g>
				<g>
					<path fill="#FFFFFF" d="M360,352.4c-0.1,2.1,1.1,1.3,1.4,1.6C361.1,350.5,359.7,352.5,360,352.4z"/>
					<polygon fill="#FFFFFF" points="357.2,318.1 357.7,318.7 356.4,313.7 					"/>
					<path fill="#FFFFFF" d="M357.2,286.1c-2.1,3,0.3,11.6-0.4,17.3l-0.5,0.9l1.7,2.6C357.7,300,356.6,291,357.2,286.1z"/>
					<path fill="#FFFFFF" d="M361.8,269c-0.8,1.1-0.7-3.7-0.3,4c0.1-0.4,0.1-0.5,0.2-0.7C361.7,271.6,361.7,270.6,361.8,269z"/>
					<path fill="#FFFFFF" d="M361.8,272.3C361.8,275.6,362.5,270.1,361.8,272.3L361.8,272.3z"/>
					<path fill="#FFFFFF" d="M361.3,256.7l0.7,4.4c0.5-0.9,0.6-4.9,1-3.4C362.6,253.2,362.1,254.1,361.3,256.7z"/>
					<path fill="#FFFFFF" d="M359.7,252.5l0.3,2.3C360.2,254.4,360.3,253.8,359.7,252.5z"/>
					<path fill="#FFFFFF" d="M360.7,259.7l-0.7-4.9c-0.3,0.6-1,0.7,0.2,2.2C359.6,256.6,360.2,257.6,360.7,259.7z"/>
					<path fill="#FFFFFF" d="M360.4,262.4c-0.5,2.5-0.8,5.7-1.5,1.3C359.2,272.2,360.7,270.9,360.4,262.4z"/>
					<path fill="#FFFFFF" d="M355,284.4l-0.6,3.3l0.7,2.9C354.7,289.2,355.6,284.2,355,284.4z"/>
					<path fill="#FFFFFF" d="M362.4,229c-0.5-0.3-1.2,1.5-1.8,1.8l0.5,3.3C361.4,232.4,361.7,229.2,362.4,229z"/>
					<path fill="#FFFFFF" d="M360.6,230.8l-0.8-4.9C359.7,230.3,360.1,231.1,360.6,230.8z"/>
					<polygon fill="#FFFFFF" points="357.3,251.7 359,259.7 357.3,250.1 					"/>
					<polygon fill="#FFFFFF" points="362.4,210.3 363.5,213 361.9,208.1 					"/>
					<path fill="#FFFFFF" d="M362.3,197.8c0.9,2.1,1.5-2.8,2-0.6c-0.2-3.4-0.9-6.3-1.6-8.9C363.1,191.1,363,194,362.3,197.8z"/>
					<path fill="#FFFFFF" d="M361.7,183.9c0.2,1.4,0.6,2.8,1,4.4C362.5,186.8,362.2,185.4,361.7,183.9z"/>
					<path fill="#FFFFFF" d="M360,217.6c0.3-0.4,1-1.1,1.3-3.9l-1.3,1.9C360,216.2,360,216.9,360,217.6z"/>
					<path fill="#FFFFFF" d="M360,215.7L360,215.7c0.1-2.2,0.1-3.6,0.1-4.2C360.1,212,360.1,213.3,360,215.7z"/>
					<path fill="#FFFFFF" d="M360,218c0-0.2,0-0.3,0-0.5C359.9,217.7,359.9,217.9,360,218z"/>
					<path fill="#FFFFFF" d="M358.5,238.8c-0.7-2.9-1.5-8.9-2.6-3.1C356.8,237.8,357.4,234.5,358.5,238.8z"/>
					<path fill="#FFFFFF" d="M358.4,220.4l-0.3,5.2c0.3-0.1,0.8-1,1.2,0.4L358.4,220.4z"/>
					<polygon fill="#FFFFFF" points="358,217.9 358.4,220.4 358.5,218.5 					"/>
					<path fill="#FFFFFF" d="M360.5,192.9c-0.6-2.3-0.6-4.7-0.7-7.5c-0.3,3-0.4,6.1-0.4,9C359.8,194.8,360.6,196.1,360.5,192.9z"/>
					<path fill="#FFFFFF" d="M360.2,204c0-0.2-0.1-0.4-0.1-0.5C360,203.8,359.9,204,360.2,204z"/>
					<path fill="#FFFFFF" d="M359.8,158c-0.1,0.2-0.2,0.3-0.2,0.4c0.1,0,0.1,0.1,0.2,0.1L359.8,158z"/>
					<path fill="#FFFFFF" d="M359.2,194.9c-0.2,2.2,0.1,3.6,0.5,4.9c-0.1-1.7-0.2-3.5-0.2-5.4C359.3,194.2,359.1,194.2,359.2,194.9z
						"/>
					<path fill="#FFFFFF" d="M361.1,176.3c-0.3,1.2-0.5,2.5-0.7,3.9C360.8,179,361.4,176.7,361.1,176.3z"/>
					<path fill="#FFFFFF" d="M360.4,202.7c0,0.1,0,0.2,0.1,0.3C360.8,202.3,360.6,202.4,360.4,202.7z"/>
					<path fill="#FFFFFF" d="M360.4,202.7c-0.2-1.2-0.5-2.1-0.8-3c0.1,1.4,0.2,2.6,0.4,3.7C360.2,203.2,360.3,202.9,360.4,202.7z"/>
					<path fill="#FFFFFF" d="M351.6,149.7c1.2,0.4,2.3,6.3,1,11.4c0.9,5,4.8,1.7,7-2.6c-0.5-0.2-1-0.2-1.7-5.3
						c-0.6,1.8-1.5,11.4-2.6,7.1c-0.6-6.8,0.4-5.6,1-8.9c-1.5,2.8-2.2-8.7-4.3-7.2l0.8,6C352.4,150.2,351.9,148,351.6,149.7z"/>
					<path fill="#FFFFFF" d="M359.5,168.2l0.1,2.1c0.2-2.4,0.7-4.1,1.6-7.3c-0.6-3.5-1-4.3-1.4-4.5l-0.2,10.4L359.5,168.2z"/>
					<path fill="#FFFFFF" d="M359.6,179.9c-1.3-1.7-1.8-6.7-3.2-3.6c0.1,6.2,1.1,4.4,1.6,8.1c-0.3-10,0.7,2.9,1.5-4.4
						c0.2,2,0.3,3.7,0.3,5.4c0.2-1.8,0.4-3.6,0.6-5.2c0,0.1-0.1,0.2-0.1,0.2l0,0c0,0,0,0,0,0c-0.2,0.4-0.3,0.6-0.2,0.1
						c0,0,0-0.2,0-0.2C359.9,180.3,359.8,180.1,359.6,179.9c0.3-2.9,0.3-0.5,0.5,0.5c0.1,0,0.1,0.1,0.2,0.1c0,0,0,0,0,0l-0.7-10.1
						C359.4,172.5,359.5,175.1,359.6,179.9z"/>
					<path fill="#FFFFFF" d="M353.1,230.4c0.1-0.3,0.2-0.3,0.3-0.3C353.3,229.4,353.2,229.1,353.1,230.4z"/>
					<path fill="#FFFFFF" d="M353.9,226.2c0.2,0.7,0.7,1.3,0.6,3.7c-0.4,2.1-0.6,0-1,0.1c0.3,1.4,0.9,5,1.6,0.5l-0.2-0.7
						c0.4-4.1,2.1-9.3,2.2-8.5C355.9,222.5,355.1,223.5,353.9,226.2z"/>
					<path fill="#FFFFFF" d="M356.4,202.8l-0.6-8.4l-1.1,4.3l0.7-0.2C355.1,203.2,355.9,202.2,356.4,202.8z"/>
					<polygon fill="#FFFFFF" points="360.5,157 361.8,158.1 359.9,153.3 					"/>
					<polygon fill="#FFFFFF" points="360.3,146.1 361.5,146.5 360.8,143.7 					"/>
					<path fill="#FFFFFF" d="M10.1,120.6l0.3,2.5C10.4,121.9,10.2,121.1,10.1,120.6z"/>
					<path fill="#FFFFFF" d="M10.2,102.8l-0.6-0.4C9.9,103.1,10.2,103.5,10.2,102.8z"/>
					<path fill="#FFFFFF" d="M230.4-6.5c-3.6-1.1-7.6-2.8-7.2-1.5l1.1,1.3C226.9-6.9,228.8-6.8,230.4-6.5z"/>
					<path fill="#FFFFFF" d="M47.3,1.3c0.3,0.1,0.7,0.3,1,0.4c0.9-0.4,1.7-0.9,2.4-1.2C49.7,0.7,48.5,1,47.3,1.3z"/>
					<path fill="#FFFFFF" d="M44.8,6.7L40,5.8C41.1,6.1,42.6,6.4,44.8,6.7z"/>
					<path fill="#FFFFFF" d="M11.5,217.9l1.3,2.9C12.8,216.3,12.2,218.3,11.5,217.9z"/>
					<path fill="#FFFFFF" d="M359.8,34.6c0.5-3.1,0.7-5.6,0.8-7.7C359.9,30.6,358.7,33.6,359.8,34.6z"/>
					<path fill="#FFFFFF" d="M-3.7,113.6c0.2,1.5,0.5,2.2,0.8,2.1C-3.1,114.1-3.4,113.2-3.7,113.6z"/>
					<path fill="#FFFFFF" d="M360.6,18c-0.1,0.5-0.2,1.1-0.3,1.6c0.2,2.3,0.4,4.5,0.3,7.3C361.2,24.1,361.5,21,360.6,18z"/>
					<path fill="#FFFFFF" d="M220,346.6c0.3,0.1,0.6,0.1,0.8,0.2C220.8,346.6,220.5,346.6,220,346.6z"/>
					<path fill="#FFFFFF" d="M322.8,359.7c-1,0.1-2.7,0.1-4.2,0.1C319.3,359.9,320.6,359.9,322.8,359.7z"/>
					<path fill="#FFFFFF" d="M360.9,102.3C361,104.6,361,102.7,360.9,102.3L360.9,102.3z"/>
					<path fill="#FFFFFF" d="M355.7,113.5c-0.1-0.5-0.3-0.9-0.6-0.9C355.4,112.8,355.6,113.1,355.7,113.5z"/>
					<path fill="#FFFFFF" d="M346.6,1.2c-0.1,0-0.1,0-0.2,0C346.9,1.4,346.8,1.4,346.6,1.2z"/>
					<path fill="#FFFFFF" d="M360.3,105.8c0.2-0.9,0.3-1.9,0.4-3C360.6,103.3,360.4,104.2,360.3,105.8z"/>
					<path fill="#FFFFFF" d="M360.9,105.3c0,0.8-0.1,1.4-0.1,2C361,107.6,361.1,107.4,360.9,105.3z"/>
					<path fill="#FFFFFF" d="M360.8,99.1c0,1.3,0,2.6-0.1,3.7c0.1-0.5,0.2-0.6,0.2-0.5C360.9,101.6,360.8,100.7,360.8,99.1z"/>
					<path fill="#FFFFFF" d="M30.8,350.1c0.2,0,0.3,0.1,0.5,0.1C33.6,349.6,32.6,349.7,30.8,350.1z"/>
					<path fill="#FFFFFF" d="M170.3,7c0.1,0,0.2,0,0.3-0.1c-0.1,0-0.2,0-0.3,0L170.3,7z"/>
					<path fill="#FFFFFF" d="M162,8c3.5-1.6,5.5-1.4,8.2-1.1l-2.7-3.8L162,8z"/>
					<path fill="#FFFFFF" d="M10.5,163.3l1.2-5.8c1.9,7,1.3,12.1,2.9,6.6c-4.1-0.8-0.4-22.6-4.5-23.4l0.9-3.8c0,1.1,0.2,1.3,0.2,2.4
						c2-7.5-2.9-5.5-2.4-15.2c0.3-3.4,0.9-5.7,1.4-3.4l-1-7.5c0.1-2.2,0.8-1.6,0.7,0.5l-0.3-11.4l0.1,0.1C9,100.7,8,97,7.6,95.2
						c0.6-2.9,0.4,1.5,0.9,0.7l-1-6.3c1.1-2.6,2.1,2.7,1.9,7c4.1-5.9-1-5.2,1.4-18l0.5,6c2.3-3.8,1.5-8.5,2.9-15.2
						C13.5,71,10.6,82.9,9.6,76c0.3-1.9,0.5-4.5-0.4-8.2c1.4,0,1.1-3.6,1-8.2l1.9,0.3c-0.6-4.9-1.5-4.5-2.4-7.4
						c0.2-5.4,1.7-6.6,2.9-7.8c0.3-8.7-2.4,6-2.7-4.3c0.7-7.2,0-12.3-1.2-21c0.7-5.1,1.2,0.9,1.7-0.9l-1.5-4.5
						c0-1.1,0.5-0.7,0.7-0.6c0-0.2-0.1-0.4-0.1-0.6c0-0.2-0.1-0.4-0.1-0.4c-0.1-0.1-0.2-0.2-0.3-0.3c-0.2-0.2-0.5-0.2-0.7-0.4
						C8,11.6,7.5,11.2,7.2,9.2C6.3,8.4,6.8,6.7,7.4,5.4c1.7,0.4,3.3,0.9,4.5,1.1c0.7,0.1,1.2,0.1,1.8,0c0.1,0,0.3,0,0.4-0.1l0.2-0.1
						c0.1,0,0.1,0,0.3-0.1c0.5-0.1,1.1-0.2,1.6-0.4c1.8,0.5-0.9,1.2-0.3,1.9c10.1-1.6,8.7-1.1,17-3.3L40,5.8
						c-5.2-1.4,1.4-3.1,7.3-4.5c-1.8-0.7-3.4-1.3-4.5-1.6l9.3-1c1.1,0.3,0.2,1-1.3,1.8C51.4,0.3,52,0.1,52.5,0
						c3.3,0.7,1.6,1.8-0.8,2.9c-1.1-0.4-2.3-0.8-3.3-1.2c-2.3,1.2-4.4,2.5-4,3.6c0.6-0.2,1.8-0.4,3-0.5c-0.6,0.3-1,0.6-0.7,0.8
						C47,5.7,48,5.3,49.5,4.8L51.6,7l0.5-0.8l12.1,1.3c8.7-2.2,16.2-5.3,30-6.2c-3.4,1.6-0.7,2.6-0.9,4.4c-3.8-2-10.7,0.8-17.8,0.4
						c3.7,0.2,2.9,1.1,2,1.4l12.7-1.8c-0.3,1.5,2.7,1.1,6,1.8c-2.5-3,9.5-2,14.7-2.9c0.3,1-0.9,2-7.2,1.8c7,2.3,9-3.5,15.9-1.6
						c-1.5,0-2.4-0.1-3,0.4c3.6-0.9,12.4-0.2,10.4,0.7l-1.5,0c10.3,0.4,31.2,0,32.7-2.5c0.1,0.3-1.3,3.1-2,3.6l18.3-8.6
						c-1.6,2.2,4.6,7.4-3.9,8.6c2.4,0.3,5.5,0.7,10.6-0.1c-1.7-0.3-4.2-3.2-1.9-3.4c6.2,2.4,4.3,1.3,12,3.4
						c-2.5-0.5,0.3-3.9,4.2-3.8c-0.6,0.5,0.3,3.4-1.1,3.8l9.8-3.4c-2.5,0.6-0.4,2.9,1.8,3.8c-1-0.7,8.5,0.1,11.1-0.3L213,6.2
						c11.1,0.5,11-4.7,22-4.6c-1.3,0.7-3.3,4.3,2.3,4.7c2.6-1.7,11.4-8.3,21.1-9.6l1.9,1l7.5-1.1C263-0.8,250,4.7,242.9,6.8
						c4.1,0.8,1.2,1.2,7.4,1.1c2.2,0.9-3.4,1.4-5.2,1.5l14.5,0.6c-0.6-2,11.1-2,10.5-3.7l-15.7,2.1c-0.6-2,9.1-5.7,19.3-5.4
						c2.6,0.8-2,3.6-1.7,4.3c1.3-0.7,9.7-1.3,10.7-0.8l-4.3,1.1c5.7,0.8,9.3-2.7,16.2-0.7c2.4,0.1,7.1,2.6,7.5,1.4
						c-3.9-2.3-4.6-9.4-2-11.1c0.8,0.2,12.4,2.2,15.1,3.3c3.9,1.8-5.9,4.3-2.5,5.9c0.1-0.6,2.3-1.2,3.2-1.4c2.5,0.5-1,1.7,4.4,1.5
						c0.9-2,11,0.2,2.6-1.7c5.3-0.6,5.6,0.4,11.8,0.3c-1-0.7,0.4-1.8,2.7-2.8c1.2-0.5,2.5-1,3.9-1.4c1.5-0.4,3.1-0.7,4.7-0.9
						c-0.5,0.5,0.5,1.2,0.9,1.5c2.2,0,4.1,0.1,5.8,0.2c-0.2,3.7-0.4,6.8-0.6,9.8c-0.1,1.4-0.2,3.2-0.2,4.9c-0.1,1.7-0.1,3.6-0.1,5.6
						c-0.5,0.9-1.1,5.8-2,3.7c0.4,1.5,1.1,2.8,1.1,5.9c-1.8,6-0.3-6.9-2.4-2.3c1.2,0.4,1.6,8.1,2.4,12.5c1.8-1.4,0.4-10.3-0.4-14.7
						c2.5,0,5.2,7.7,6.4,18.3c0.6,8.4-1.6,3.6-1.3,5.1c-0.4,15.8,4.4,13.4,2.6,26.5c-1.6,5.2-3.2,0.2-4.4,1.4
						c-0.6-6.8,1-10.5,1-15.1l-0.8,5.7c-0.5-2.2-0.9-6.7-0.5-9.2c-1.4,4.4-0.3,26.6-1.6,38.8c0.5,2.2,1.1,5.9,1.7,4.1l-0.2-3.8
						c1.3-3.5,1.8,7.2,2.4,2.4c0.9,5.2,2.4,10.9,1.6,18.2l-1.8,1.4c0.5-0.2,1.1-4.7,0.5-6.8c0.8,3-2.5,11.1-0.1,14.5l1.3-5.1
						c0.9,5.2,2.9,11.6,2.3,18c1.8-2.9-0.2-1.5,1.9-6.1c-2.6,4,0.1-16.5-2.7-10.1c2.5-4.7,1-8.1,3.1-14.3c-0.6,0.2-1.2,2.2-0.9-3.2
						c-0.2-0.2-0.4-0.8-0.5-1.2c0-0.2,0-0.2,0-0.4c0,0.1,0,0.2-0.1,0.3c-0.1-0.2-0.1-0.3,0,0.1c-0.3,1.3-0.6,2.3-0.9,2.8
						c-1.4-2.7-1.3-11.3-2.1-14.2c0.3-3.2,0.7,1.3,1.3-0.4l-1.1-4.3c1.3-0.4,2.2-8.5,3-1l0.1-6.8c0.8-4,1.1-9.5,0.5-12.9
						c0.3-3.2-1.5-8.1-0.4-5.3l-0.8-10.7l0.3-0.1c0.2-10.5-2.2-21.7,0.2-33.7c-0.2-1.8-0.4-3.6-0.5-5.7c0-0.3,0-0.5,0-0.8
						c0-0.3,0-0.7,0-1c0-0.9,0-1.9,0-2.9c0-2,0.1-4.2,0.2-6.6c0,0,0.3-0.6,0.6-1.3c0.3-0.7,0.6-1.3,0.6-1.3c-0.1-2-0.1-4.6,0-7.4
						c-3.8-0.1-7.9-0.3-11.6-0.4c-3.6-0.1-6.7,0-7.9,0.4c-0.1,0-0.3-0.1-0.4-0.1c-0.1,0-0.2-0.1-0.3-0.1c-0.2-0.1-0.4-0.2-0.6-0.2
						c-0.4-0.2-0.8-0.3-1.3-0.4c-1-0.2-2.1-0.4-3.3-0.5c-2.4-0.2-5.3-0.2-8.2-0.1c-5.9,0.2-12.2,0.6-16.2,0.3L311-7.1
						c-5.5-0.1-10.8,0.3-17.6,1l0.4,1.3c-5.9,1.1-15.1-1-24.5-0.8c0.6-0.5,3-0.4,4.7-0.1c-11.1-3-23.5,2.2-33.6,0
						c-2.5,0.5-4.3,0.3-6.1,0c0.2,0,0.4,0,0.6-0.1c-0.3,0-0.6,0-1,0c-1.1-0.2-2.3-0.5-3.5-0.7c1.1,0.3,2.1,0.6,2.9,0.7
						c-1.9,0-4.9,0.2-7.8,0.5l-1.2-1.4c-0.2,0-0.4,0-0.7,0c-2.8-0.5-2.3,0.7-0.8,1.8c-1.5,0.2-2.8,0.5-3.8,0.9
						c-2.3-2.3-7.6,0.8-10.7-1.7c-1.9,1.2-14.5,0.9-16,3.5c-0.1-0.3-0.9-0.5,0.6-0.5c-3.2-0.3-6.4-0.6-9.3,0.1l-1.4-1.8l-7,2.5
						c-4.3-1.1-6-1.8-1.8-3.2c-10.2,2.2-8.3,0.8-17,3l0.4-1.2c-3.1,0-8.1,1.6-10,0.7C140-5,112.5-3,94.7-5.1c3.5,3.5-8.3-1.6-9,1.1
						c-1-0.8-3.5-1.3-0.6-2c-9.1,0.8-13.7-1.3-20,1c-1-0.8,2-1.2,1-1.7c-0.7,0.2-2.9,0.7-3.8,0.2C61.3-7,63.5-7.2,65-7.5
						c-9.3,0.1-10.3,2.7-10.9,5.1c-4.7-1.1-7.1-1-10.5,0.6c-1.6-0.8-4.4-1.6,1.4-1.9C41.7-3.9,25.1-4.9,24.8-3
						c-1-0.5-4.5-0.1-5.4,0.1C15.2-3,13-3,10.8-3.1c-2.7,0-5.3,0-10.1,0.1l2.9,0.3C2.9-1.9,1.9-1.6,0.5-1.5c0.1,1.4-0.1,2.7-0.2,4.3
						C0.1,4.4,0,6.4,0.1,8.7l-0.2-0.3c-0.1,1-0.2,2-0.3,2.8c-0.1,0.8-0.1,1.5-0.2,2.1c-0.1,1.1-0.1,1.9-0.2,2.6
						c0,1.4,0.1,2.1,0.1,2.8c0.2,1.4,0.3,2.8-0.6,9.3l1.4-0.7C3.3,28.6-1.6,39-0.4,46.6l0.8-2.7C1.4,48-3.8,55.4-4.2,59.6
						c-0.3,0.9-0.4-1.4-0.6-2.7c-1.8,10.9,1.9,1.4,2.3,9.5c-1,1.5-2.6-1.9-2.8,3.5C-6.1,72.7-2,85.8-3.9,93.3
						c0.8-1.6,1.6-3.3,2.2,0.5c0.3,5.8-3,15.6-0.5,20.9c-0.2,0.7-0.4,1-0.6,1c0.6,4.4,1.1,14.4,2.4,17c-5,4.1,2.4,27.5-2.2,27.4
						l0.2,13.6l-0.5-0.4c-0.3,8.7,0.8,11.8,1.9,14.8c-0.3,2-0.7,0.5-1,0.4c-0.9,12.7-0.7,14,1.6,24.6l-1.5,1.1
						c0.9,2.9-2.3,18.4-0.6,30.8c-0.2-0.1-0.5-0.4-0.7-1.4c1.7,14-4.1,33.5,1.3,38.7l1.3,9.2c0.4-12,2.3,1.8,3.2-3.1
						c0.3,4.7-1.6,12.2-1.9,6.4l0.3-0.9c-2.8-2.1-1,14.9-2.9,14.5c0,7.7-0.1,15.4-0.3,23c-0.1,3.9-0.2,7.7-0.4,11.5
						c-0.1,5.7-0.3,11.3-0.4,16.9c5.9,0.1,11.7,0.2,17.5,0.3c3.8,0.1,7.6,0.2,11.4,0.2l-2.5-2.2l7.7,0.1c2,0.5,2.7,1.7-2.8,1.6
						c2.9,1.2,9.2-1,9.4-1.5c10.7,0.9-4.2,2.6-0.9,2.6l4.5-0.2l-1-0.3c3.6-0.9,3.9-1.8,10.5-1.7c4.2,0.4,2.1,1.4,3.8,1.4
						c0,0.2,0.5,0.2,2.5,0.1l9.7,0.2l-3.9-1.7c4.3-0.9,9.1,0.1,4.6-1.9c6.6,3,36.1,1.1,40.2,2c6-1.3,12-1.2,19.3-1.1
						c-1.8-0.4-2.9-2.3,3.4-2.1c-2.3,4,11.6,1.7,16.7,4.6c-4.6-1.9,18-0.5,10.8-3.2c5.3,0.3,0.3,1.5,4.3,2.5
						c12.6-1.6,27.8,1,43.3,0.5c0.2-0.5-2.4-1.3,1-2.1l8.2,2.6c3.1-0.3,2.8-3,8.5-1.2c-0.8-0.4-2-1.1,0.1-1.3
						c30.5,2.6,62.3-2.1,93.3,2.7c-4.2-1-1.4-1.1,1.8-1.2c-2.1-0.2,0-1.3-0.4-2l13,2c2.4-2,13.9-0.1,15.3-2l-4.1,0.3
						c5.5-2.2-7.6-5-6.8-7.9c-6.1,2.5-16.1-3.8-26.2-0.1c-2.2-0.6,1.9-0.9,0.7-1.6c-2.5,1.2-5.6,1.5-11.3,0.9l0.6-0.3
						c-16,0.3-22.8-0.9-40.8-1.7l1.3,1.4c-3.9-0.2-4.7-0.6-6.5-1c-4.4,2.2,10.8,0.1,6.8,2.5c-5.1-2.9-27.2,0-30.7-3.3
						c-5.9,0,1.7,1.6-4.2,1.6l-1.6-0.9l-1.5,1.1c-3.9-0.2-5.9-1.3-6-2.1c0.9,0.1,2.7-0.2,3.7-0.3c-5-1-14.2,0.4-16,0l5.7,0.5
						c-16.2,0.8-36-0.3-51.7,1.5l1.2,0.7c-12,1.2-9.6-0.7-22.7-0.2l0.5-0.2c-2.6,0.7-6.1,1-9.7,0.9c3.3-0.8-6.2-1.5-1.9-2.4
						c-13,1.3-6.4,1-15,3.5l-2-1.1c-2.9,1-3.2,1.5-9.7,1.8c5.4-1-4.2-1.7,1.8-3c-13.8-2.4-20.4,2.5-26.7-1.1
						c-6.3,3.1,11.9,1.7,8.4,2.4c3,1-5.2,2.3-9.5,2c-4.4-0.1-7.5-3.9-18.5-3.9c1.1,0,1.2-0.2,2.3-0.2c-4.1-0.8-8.1,1.1-13.2-0.2
						c-2.8,1.9-6.6-0.1-7.4,2.3l10.1-0.5c-5.7,0.6-11.1,3.4-20.6,2.1c0.7-0.5,3.6-1.1,5.5-1.5c-2.8-0.7-5.3,0.5-8.2-0.3
						c0.8-2.4,12.3-0.5,18.5-2.3c-3-1-11.7,1.7-8.6-0.9c-2.2,1.6-4.9,1.5-8.1,1.3c-1.6-0.1-3.2-0.2-4.9-0.2c-0.9,0-1.7,0.1-2.6,0.2
						c-0.5,0.1-0.9,0.2-1.4,0.3c-0.4,0.1-1,0.2-1.2,0.4c0,0,0.2-1.4,0.3-1.4c-0.3,0.1-0.7,0.3-1.2,0.5c-0.5,0.2-1.2,0.4-1.7,0.3
						c0,0,0.7-0.5,1.3-0.9c0.6-0.5,1-0.9,1-0.9c-0.6,0.4-1.4,0.5-1.9,0.4c-0.6-0.1-1-0.3-1.2-0.6c0.4-1.3,0.8-2,0.4-2.6
						c0,1.7-0.4,2.3-0.9,2.8c-0.6,0.5-1.2,0.5-1.8,2.2c0,0,0,0,0,0c0,0-0.1,0-0.1,0C8,347,8,345.5,8.2,344.5
						c0.1-0.5,0.3-0.9,0.5-1.3c0.1-0.2,0.2-0.3,0.4-0.5l0.2-0.2c0.1-0.1,0.1-0.3,0.2-0.4c1.1-2.4,2.3-5,2-13.4
						c0.2,2.3-0.9,8.5-1.5,5c0.3-3.2,0.8-7.4,1.6-9.4c-0.3-11.1-1.5,1.7-2.3-3c1.7-3.8-0.7-5.5-1.3-10.4l1.4,0
						c0.9-12.7-3-3.4-1.9-14.8l2,4.8L9,295l1.6,1.2c-1.2-6.5-0.9-8.5-0.4-14.8c-1,1.5-2.6-0.8-2.7-6.5c0.9-3.8,1.4,2.1,1.2-5.8
						c0.9,1.8,2,3.8,0.7,7.2c0.5,0.4,0.9,1.8,1.4,2.1c1-4.1,0.2-10.4,0.2-13.3c-0.1,1.1-0.1,2.4-0.3,3.1l-2-11.6
						c0.5-1.8,1-0.4,1.4,1.1c-0.2-2.3-0.8-4-0.9-7.4c1.2,0.9,2.4,0.7,2.9,5.5l-1.3-11c0.5-0.7,1.4-5.6,1.8-4.2
						c0.7-6.1-2.3-15-1.4-23.1c-0.2-0.4-0.4-1.3-0.6-3c0.3-7.6,1.7-14.3,0.1-23.4l2.1-5.1c-0.5-7.1-2.7,6.9-3.5-4.8
						c-0.7-8.3,1.8-3.1,2.4-6c-1.1-4.1-3.2-11.3-1.5-19C10.7,158.9,10.3,160.9,10.5,163.3z M9.6,76.2c0.3,1.7,1.2,5,0.4,6.3
						C8.3,80.6,9.1,79.1,9.6,76.2z M60.1,4.1c-1.3,0.5-3.2,0.2-5.4-0.3C56.3,3.7,58.1,3.7,60.1,4.1z M359.7,77c0-0.1,0-0.1-0.1-0.2
						C360.2,73.1,360,74.4,359.7,77z M359.1,84.8c0.2,0.8,0.4,0.7,0.6,0.4c-0.4-0.5-0.4-2.3-0.3-4.3C359,81.5,358.7,82.5,359.1,84.8
						z M55.5,359.8l-1.5-0.4C57.4,359,56.4,359.4,55.5,359.8z"/>
					<path fill="#FFFFFF" d="M45.1,6.1c-0.5-0.2-0.6-0.5-0.7-0.8C43.7,5.5,43.7,5.8,45.1,6.1z"/>
					<path fill="#FFFFFF" d="M11.3,217.4l0,0.3c0.1,0.1,0.2,0.2,0.3,0.3L11.3,217.4z"/>
					<path fill="#FFFFFF" d="M315.5,6.9c-1.6-0.2-2.5-0.5-3.1-0.7C312.3,6.5,313,6.8,315.5,6.9z"/>
					<path fill="#FFFFFF" d="M361.5,126.2l-0.4-5c0.1,2.4-0.2,3.3-0.5,4.5C361,125.6,361.5,124.7,361.5,126.2z"/>
					<path fill="#FFFFFF" d="M352.6,169.7c0.2,0.7,0,1.6,0.2,2.3l0.7-0.2C353.4,168.6,352.9,166.4,352.6,169.7z"/>
					<path fill="#FFFFFF" d="M356.7,130.8c-1.2,0.4-0.8,3.5-0.6,7c0-0.2,0-0.4,0-0.6C357.8,138.3,357.3,134.6,356.7,130.8z"/>
					<path fill="#FFFFFF" d="M356.2,138.7c0.1,1.1,0.1,2.2,0,3.2C356.9,142.4,356.4,140.6,356.2,138.7z"/>
					<path fill="#FFFFFF" d="M359.9,94.7c-0.3,1.7,1.6,1,1.1,2C362.5,98.6,359.1,85.6,359.9,94.7z"/>
					<polygon fill="#FFFFFF" points="352.7,133.7 354.2,132.4 353,130.5 					"/>
					<path fill="#FFFFFF" d="M353.8,106l-0.4,5.6c0.3-0.1,0.4,0.6,0.5,1.5C354,109.7,354.3,105.9,353.8,106z"/>
					<path fill="#FFFFFF" d="M353.9,113.1c0,1.8,0,3.5,0.2,4.5C354.1,116.6,354.1,114.6,353.9,113.1z"/>
					<polygon fill="#FFFFFF" points="352.3,126 352.6,124.4 352.7,120.4 					"/>
					<path fill="#FFFFFF" d="M354.1,45.8l-0.4-6.1c-0.5-0.6-0.8,1-0.6,3.3C353.4,44.5,353.6,46.7,354.1,45.8z"/>
					<path fill="#FFFFFF" d="M350,64.3c0.3-1.7,0.6-1.8,1.1-2.7l-1.9-0.2L350,64.3z"/>
					<path fill="#FFFFFF" d="M349.6,46.5c-0.5-0.6-1.5-8.9-1.4-1.1C348.7,46,349.1,52.1,349.6,46.5z"/>
					<polygon fill="#FFFFFF" points="306,1.8 307.6,1.8 307.4,-1.3 					"/>
					<path fill="#FFFFFF" d="M224.9,9.1c7.2,0.7,1.7-1.9,8.3-1c1.7-0.7-5.4-0.7-3.6-1.4C225.2,7.5,222.9,7.1,224.9,9.1z"/>
					<path fill="#FFFFFF" d="M229.5,6.8c0.7-0.1,1.4-0.3,2.2-0.5C230.5,6.5,229.9,6.6,229.5,6.8z"/>
					<polygon fill="#FFFFFF" points="339.9,361.4 344.5,362 341.5,361 					"/>
					<path fill="#FFFFFF" d="M348.8,359.1l1.1,1.9l2.8-1.8C351.7,359.4,349.6,359.5,348.8,359.1z"/>
					<path fill="#FFFFFF" d="M13.5,63.3L13,62.9c-0.5,0.7-0.5,1.8-0.6,4L13.5,63.3z"/>
					<polygon fill="#FFFFFF" points="12,126.5 12.1,125.4 10.3,127.4 					"/>
					<path fill="#FFFFFF" d="M14.3,179.5c0.1-2.2-0.3-4.7-0.2-6.9C14.3,177.3,12.1,180.1,14.3,179.5z"/>
				</g>
			</g>
		</g>
	</g>
</g>
<text transform="matrix(1 0 0 1 112.7325 183.9702)" fill="#FFFFFF" font-family="'ClearLine-PERSONALUSEONLY'" font-size="109.6612">Art</text>
<rect x="3" y="1" fill="none" width="359" height="359"/>
</svg>
