<?xml version="1.0" encoding="utf-8"?>
<!-- Generator: Adobe Illustrator 18.1.1, SVG Export Plug-In . SVG Version: 6.00 Build 0)  -->
<svg version="1.1" id="Layer_1" xmlns="http://www.w3.org/2000/svg" xmlns:xlink="http://www.w3.org/1999/xlink" x="0px" y="0px"
	 viewBox="0 0 360 360" enable-background="new 0 0 360 360" xml:space="preserve">
<g>
	<defs>
		<rect id="SVGID_1_" width="360" height="360"/>
	</defs>
	<clipPath id="SVGID_2_">
		<use xlink:href="#SVGID_1_"  overflow="visible"/>
	</clipPath>
	<g transform="matrix(1 0 0 1 7.629395e-06 0)" clip-path="url(#SVGID_2_)">
		
			<image overflow="visible" width="1920" height="1080" xlink:href="../public/images/art.jpg"  transform="matrix(0.4008 0 0 0.4008 -107.9578 -24.8844)">
		</image>
	</g>
</g>
<g>
	<g>
		<g>
			<g>
				<g>
					<path fill="#FFFFFF" d="M360.3,351.4c-0.1,2.1,1.1,1.3,1.4,1.6C361.4,349.5,360,351.5,360.3,351.4z"/>
					<polygon fill="#FFFFFF" points="357.5,317.1 358,317.7 356.7,312.7 					"/>
					<path fill="#FFFFFF" d="M357.5,285.1c-2.1,3,0.3,11.6-0.4,17.3l-0.5,0.9l1.7,2.6C358,299,356.9,290,357.5,285.1z"/>
					<path fill="#FFFFFF" d="M362.1,268c-0.8,1.1-0.7-3.7-0.3,4c0.1-0.4,0.1-0.5,0.2-0.7C362.1,270.6,362.1,269.6,362.1,268z"/>
					<path fill="#FFFFFF" d="M362.1,271.3C362.1,274.6,362.8,269.1,362.1,271.3L362.1,271.3z"/>
					<path fill="#FFFFFF" d="M361.6,255.7l0.7,4.4c0.5-0.9,0.6-4.9,1-3.4C362.9,252.2,362.4,253.1,361.6,255.7z"/>
					<path fill="#FFFFFF" d="M360,251.5l0.3,2.3C360.5,253.4,360.6,252.8,360,251.5z"/>
					<path fill="#FFFFFF" d="M361,258.7l-0.7-4.9c-0.3,0.6-1,0.7,0.2,2.2C359.9,255.6,360.6,256.6,361,258.7z"/>
					<path fill="#FFFFFF" d="M360.7,261.4c-0.5,2.5-0.8,5.7-1.5,1.3C359.5,271.2,361,269.9,360.7,261.4z"/>
					<path fill="#FFFFFF" d="M355.3,283.4l-0.6,3.3l0.7,2.9C355,288.2,355.9,283.2,355.3,283.4z"/>
					<path fill="#FFFFFF" d="M362.7,228c-0.5-0.3-1.2,1.5-1.8,1.8l0.5,3.3C361.7,231.4,362,228.2,362.7,228z"/>
					<path fill="#FFFFFF" d="M360.9,229.8l-0.8-4.9C360,229.3,360.4,230.1,360.9,229.8z"/>
					<polygon fill="#FFFFFF" points="357.6,250.7 359.3,258.7 357.6,249.1 					"/>
					<polygon fill="#FFFFFF" points="362.8,209.3 363.8,212 362.2,207.1 					"/>
					<path fill="#FFFFFF" d="M362.6,196.8c0.9,2.1,1.5-2.8,2-0.6c-0.2-3.4-0.9-6.3-1.6-8.9C363.4,190.1,363.3,193,362.6,196.8z"/>
					<path fill="#FFFFFF" d="M362,182.9c0.2,1.4,0.6,2.8,1,4.4C362.8,185.8,362.5,184.4,362,182.9z"/>
					<path fill="#FFFFFF" d="M360.3,216.6c0.3-0.4,1-1.1,1.3-3.9l-1.3,1.9C360.4,215.2,360.3,215.9,360.3,216.6z"/>
					<path fill="#FFFFFF" d="M360.3,214.7L360.3,214.7c0.1-2.2,0.1-3.6,0.1-4.2C360.4,211,360.4,212.3,360.3,214.7z"/>
					<path fill="#FFFFFF" d="M360.3,217c0-0.2,0-0.3,0-0.5C360.2,216.7,360.2,216.9,360.3,217z"/>
					<path fill="#FFFFFF" d="M358.8,237.8c-0.7-2.9-1.5-8.9-2.6-3.1C357.1,236.8,357.7,233.5,358.8,237.8z"/>
					<path fill="#FFFFFF" d="M358.7,219.4l-0.3,5.2c0.3-0.1,0.8-1,1.2,0.4L358.7,219.4z"/>
					<polygon fill="#FFFFFF" points="358.3,216.9 358.7,219.4 358.8,217.5 					"/>
					<path fill="#FFFFFF" d="M360.8,191.9c-0.6-2.3-0.6-4.7-0.7-7.5c-0.3,3-0.4,6.1-0.4,9C360.1,193.8,360.9,195.1,360.8,191.9z"/>
					<path fill="#FFFFFF" d="M360.5,203c0-0.2-0.1-0.4-0.1-0.5C360.3,202.8,360.2,203,360.5,203z"/>
					<path fill="#FFFFFF" d="M360.1,157c-0.1,0.2-0.2,0.3-0.2,0.4c0.1,0,0.1,0.1,0.2,0.1L360.1,157z"/>
					<path fill="#FFFFFF" d="M359.5,193.9c-0.2,2.2,0.1,3.6,0.5,4.9c-0.1-1.7-0.2-3.5-0.2-5.4C359.6,193.2,359.4,193.2,359.5,193.9z
						"/>
					<path fill="#FFFFFF" d="M361.4,175.3c-0.3,1.2-0.5,2.5-0.7,3.9C361.1,178,361.8,175.7,361.4,175.3z"/>
					<path fill="#FFFFFF" d="M360.7,201.7c0,0.1,0,0.2,0.1,0.3C361.1,201.3,360.9,201.4,360.7,201.7z"/>
					<path fill="#FFFFFF" d="M360.7,201.7c-0.2-1.2-0.5-2.1-0.8-3c0.1,1.4,0.2,2.6,0.4,3.7C360.5,202.2,360.6,201.9,360.7,201.7z"/>
					<path fill="#FFFFFF" d="M351.9,148.7c1.2,0.4,2.3,6.3,1,11.4c0.9,5,4.8,1.7,7-2.6c-0.5-0.2-1-0.2-1.7-5.3
						c-0.6,1.8-1.5,11.4-2.6,7.1c-0.6-6.8,0.4-5.6,1-8.9c-1.5,2.8-2.2-8.7-4.3-7.2l0.8,6C352.8,149.2,352.2,147,351.9,148.7z"/>
					<path fill="#FFFFFF" d="M359.8,167.2l0.1,2.1c0.2-2.4,0.7-4.1,1.6-7.3c-0.6-3.5-1-4.3-1.4-4.5L360,168L359.8,167.2z"/>
					<path fill="#FFFFFF" d="M359.9,178.9c-1.3-1.7-1.8-6.7-3.2-3.6c0.1,6.2,1.1,4.4,1.6,8.1c-0.3-10,0.7,2.9,1.5-4.4
						c0.2,2,0.3,3.7,0.3,5.4c0.2-1.8,0.4-3.6,0.6-5.2c0,0.1-0.1,0.2-0.1,0.2l0,0c0,0,0,0,0,0c-0.2,0.4-0.3,0.6-0.2,0.1
						c0,0,0-0.2,0-0.2C360.2,179.3,360.1,179.1,359.9,178.9c0.3-2.9,0.3-0.5,0.5,0.5c0.1,0,0.1,0.1,0.2,0.1c0,0,0,0,0,0l-0.7-10.1
						C359.7,171.5,359.8,174.1,359.9,178.9z"/>
					<path fill="#FFFFFF" d="M353.4,229.4c0.1-0.3,0.2-0.3,0.3-0.3C353.6,228.4,353.5,228.1,353.4,229.4z"/>
					<path fill="#FFFFFF" d="M354.2,225.2c0.2,0.7,0.7,1.3,0.6,3.7c-0.4,2.1-0.6,0-1,0.1c0.3,1.4,0.9,5,1.6,0.5l-0.2-0.7
						c0.4-4.1,2.1-9.3,2.2-8.5C356.2,221.5,355.4,222.5,354.2,225.2z"/>
					<path fill="#FFFFFF" d="M356.8,201.8l-0.6-8.4l-1.1,4.3l0.7-0.2C355.4,202.2,356.2,201.2,356.8,201.8z"/>
					<polygon fill="#FFFFFF" points="360.8,156 362.1,157.1 360.2,152.3 					"/>
					<polygon fill="#FFFFFF" points="360.6,145.1 361.8,145.5 361.1,142.7 					"/>
					<path fill="#FFFFFF" d="M10.4,119.6l0.3,2.5C10.7,120.9,10.5,120.1,10.4,119.6z"/>
					<path fill="#FFFFFF" d="M10.5,101.8l-0.6-0.4C10.2,102.1,10.5,102.5,10.5,101.8z"/>
					<path fill="#FFFFFF" d="M230.7-7.5c-3.6-1.1-7.6-2.8-7.2-1.5l1.1,1.3C227.2-7.9,229.1-7.8,230.7-7.5z"/>
					<path fill="#FFFFFF" d="M47.6,0.3c0.3,0.1,0.7,0.3,1,0.4c0.9-0.4,1.7-0.9,2.4-1.2C50-0.3,48.8,0,47.6,0.3z"/>
					<path fill="#FFFFFF" d="M45.1,5.7l-4.7-0.8C41.4,5.1,42.9,5.4,45.1,5.7z"/>
					<path fill="#FFFFFF" d="M11.8,216.9l1.3,2.9C13.1,215.3,12.5,217.3,11.8,216.9z"/>
					<path fill="#FFFFFF" d="M360.1,33.6c0.5-3.1,0.7-5.6,0.8-7.7C360.2,29.6,359.1,32.6,360.1,33.6z"/>
					<path fill="#FFFFFF" d="M-3.4,112.6c0.2,1.5,0.5,2.2,0.8,2.1C-2.8,113.1-3.1,112.2-3.4,112.6z"/>
					<path fill="#FFFFFF" d="M360.9,17c-0.1,0.5-0.2,1.1-0.3,1.6c0.2,2.3,0.4,4.5,0.3,7.3C361.5,23.1,361.8,20,360.9,17z"/>
					<path fill="#FFFFFF" d="M220.3,345.6c0.3,0.1,0.6,0.1,0.8,0.2C221.1,345.6,220.8,345.6,220.3,345.6z"/>
					<path fill="#FFFFFF" d="M323.1,358.7c-1,0.1-2.7,0.1-4.2,0.1C319.6,358.9,320.9,358.9,323.1,358.7z"/>
					<path fill="#FFFFFF" d="M361.2,101.3C361.3,103.6,361.3,101.7,361.2,101.3L361.2,101.3z"/>
					<path fill="#FFFFFF" d="M356,112.5c-0.1-0.5-0.3-0.9-0.6-0.9C355.7,111.8,355.9,112.1,356,112.5z"/>
					<path fill="#FFFFFF" d="M346.9,0.2c-0.1,0-0.1,0-0.2,0C347.2,0.4,347.1,0.4,346.9,0.2z"/>
					<path fill="#FFFFFF" d="M360.6,104.8c0.2-0.9,0.3-1.9,0.4-3C360.9,102.3,360.7,103.2,360.6,104.8z"/>
					<path fill="#FFFFFF" d="M361.2,104.3c0,0.8-0.1,1.4-0.1,2C361.3,106.6,361.4,106.4,361.2,104.3z"/>
					<path fill="#FFFFFF" d="M361.1,98.1c0,1.3,0,2.6-0.1,3.7c0.1-0.5,0.2-0.6,0.2-0.5C361.2,100.6,361.1,99.7,361.1,98.1z"/>
					<path fill="#FFFFFF" d="M31.1,349.1c0.2,0,0.3,0.1,0.5,0.1C33.9,348.6,32.9,348.7,31.1,349.1z"/>
					<path fill="#FFFFFF" d="M170.6,6c0.1,0,0.2,0,0.3-0.1c-0.1,0-0.2,0-0.3,0L170.6,6z"/>
					<path fill="#FFFFFF" d="M162.3,7c3.5-1.6,5.5-1.4,8.2-1.1l-2.7-3.8L162.3,7z"/>
					<path fill="#FFFFFF" d="M10.8,162.3l1.2-5.8c1.9,7,1.3,12.1,2.9,6.6c-4.1-0.8-0.4-22.6-4.5-23.4l0.9-3.8c0,1.1,0.2,1.3,0.2,2.4
						c2-7.5-2.9-5.5-2.4-15.2c0.3-3.4,0.9-5.7,1.4-3.4l-1-7.5c0.1-2.2,0.8-1.6,0.7,0.5l-0.3-11.4l0.1,0.1c-0.6-1.6-1.6-5.3-2-7.1
						c0.6-2.9,0.4,1.5,0.9,0.7l-1-6.3c1.1-2.6,2.1,2.7,1.9,7c4.1-5.9-1-5.2,1.4-18l0.5,6c2.3-3.8,1.5-8.5,2.9-15.2
						C13.8,70,10.9,81.9,9.9,75c0.3-1.9,0.5-4.5-0.4-8.2c1.4,0,1.1-3.6,1-8.2l1.9,0.3c-0.6-4.9-1.5-4.5-2.4-7.4
						c0.2-5.4,1.7-6.6,2.9-7.8c0.3-8.7-2.4,6-2.7-4.3c0.7-7.2,0-12.3-1.2-21c0.7-5.1,1.2,0.9,1.7-0.9l-1.5-4.5
						c0-1.1,0.5-0.7,0.7-0.6c0-0.2-0.1-0.4-0.1-0.6c0-0.2-0.1-0.4-0.1-0.4c-0.1-0.1-0.2-0.2-0.3-0.3C9.2,11.1,9,11,8.7,10.9
						c-0.5-0.2-0.9-0.6-1.2-2.6C6.6,7.4,7.1,5.7,7.7,4.4c1.7,0.4,3.3,0.9,4.5,1.1c0.7,0.1,1.2,0.1,1.8,0c0.1,0,0.3,0,0.4-0.1
						l0.2-0.1c0.1,0,0.1,0,0.3-0.1c0.5-0.1,1.1-0.2,1.6-0.4c1.8,0.5-0.9,1.2-0.3,1.9c10.1-1.6,8.7-1.1,17-3.3l7.1,1.3
						c-5.2-1.4,1.4-3.1,7.3-4.5c-1.8-0.7-3.4-1.3-4.5-1.6l9.3-1c1.1,0.3,0.2,1-1.3,1.8c0.6-0.2,1.2-0.3,1.7-0.5
						c3.3,0.7,1.6,1.8-0.8,2.9c-1.1-0.4-2.3-0.8-3.3-1.2c-2.3,1.2-4.4,2.5-4,3.6c0.6-0.2,1.8-0.4,3-0.5c-0.6,0.3-1,0.6-0.7,0.8
						c0.3,0.2,1.3-0.2,2.8-0.7L51.9,6l0.5-0.8l12.1,1.3c8.7-2.2,16.2-5.3,30-6.2c-3.4,1.6-0.7,2.6-0.9,4.4c-3.8-2-10.7,0.8-17.8,0.4
						c3.7,0.2,2.9,1.1,2,1.4l12.7-1.8c-0.3,1.5,2.7,1.1,6,1.8c-2.5-3,9.5-2,14.7-2.9c0.3,1-0.9,2-7.2,1.8c7,2.3,9-3.5,15.9-1.6
						c-1.5,0-2.4-0.1-3,0.4c3.6-0.9,12.4-0.2,10.4,0.7l-1.5,0c10.3,0.4,31.2,0,32.7-2.5c0.1,0.3-1.3,3.1-2,3.6l18.3-8.6
						c-1.6,2.2,4.6,7.4-3.9,8.6c2.4,0.3,5.5,0.7,10.6-0.1c-1.7-0.3-4.2-3.2-1.9-3.4c6.2,2.4,4.3,1.3,12,3.4
						c-2.5-0.5,0.3-3.9,4.2-3.8c-0.6,0.5,0.3,3.4-1.1,3.8l9.8-3.4c-2.5,0.6-0.4,2.9,1.8,3.8c-1-0.7,8.5,0.1,11.1-0.3l-4.2-0.8
						c11.1,0.5,11-4.7,22-4.6c-1.3,0.7-3.3,4.3,2.3,4.7c2.6-1.7,11.4-8.3,21.1-9.6l1.9,1l7.5-1.1c-4.6,2.6-17.7,8.1-24.8,10.2
						c4.1,0.8,1.2,1.2,7.4,1.1c2.2,0.9-3.4,1.4-5.2,1.5l14.5,0.6c-0.6-2,11.1-2,10.5-3.7l-15.7,2.1c-0.6-2,9.1-5.7,19.3-5.4
						c2.6,0.8-2,3.6-1.7,4.3c1.3-0.7,9.7-1.3,10.7-0.8l-4.3,1.1c5.7,0.8,9.3-2.7,16.2-0.7c2.4,0.1,7.1,2.6,7.5,1.4
						c-3.9-2.3-4.6-9.4-2-11.1c0.8,0.2,12.4,2.2,15.1,3.3c3.9,1.8-5.9,4.3-2.5,5.9c0.1-0.6,2.3-1.2,3.2-1.4c2.5,0.5-1,1.7,4.4,1.5
						c0.9-2,11,0.2,2.6-1.7c5.3-0.6,5.6,0.4,11.8,0.3c-1-0.7,0.4-1.8,2.7-2.8c1.2-0.5,2.5-1,3.9-1.4c1.5-0.4,3.1-0.7,4.7-0.9
						c-0.5,0.5,0.5,1.2,0.9,1.5c2.2,0,4.1,0.1,5.8,0.2c-0.2,3.7-0.4,6.8-0.6,9.8c-0.1,1.4-0.2,3.2-0.2,4.9c-0.1,1.7-0.1,3.6-0.1,5.6
						c-0.5,0.9-1.1,5.8-2,3.7c0.4,1.5,1.1,2.8,1.1,5.9c-1.8,6-0.3-6.9-2.4-2.3c1.2,0.4,1.6,8.1,2.4,12.5c1.8-1.4,0.4-10.3-0.4-14.7
						c2.5,0,5.2,7.7,6.4,18.3c0.6,8.4-1.6,3.6-1.3,5.1c-0.4,15.8,4.4,13.4,2.6,26.5c-1.6,5.2-3.2,0.2-4.4,1.4
						c-0.6-6.8,1-10.5,1-15.1l-0.8,5.7c-0.5-2.2-0.9-6.7-0.5-9.2c-1.4,4.4-0.3,26.6-1.6,38.8c0.5,2.2,1.1,5.9,1.7,4.1l-0.2-3.8
						c1.3-3.5,1.8,7.2,2.4,2.4c0.9,5.2,2.4,10.9,1.6,18.2l-1.8,1.4c0.5-0.2,1.1-4.7,0.5-6.8c0.8,3-2.5,11.1-0.1,14.5l1.3-5.1
						c0.9,5.2,2.9,11.6,2.3,18c1.8-2.9-0.2-1.5,1.9-6.1c-2.6,4,0.1-16.5-2.7-10.1c2.5-4.7,1-8.1,3.1-14.3c-0.6,0.2-1.2,2.2-0.9-3.2
						c-0.2-0.2-0.4-0.8-0.5-1.2c0-0.2,0-0.2,0-0.4c0,0.1,0,0.2-0.1,0.3c-0.1-0.2-0.1-0.3,0,0.1c-0.3,1.3-0.6,2.3-0.9,2.8
						c-1.4-2.7-1.3-11.3-2.1-14.2c0.3-3.2,0.7,1.3,1.3-0.4l-1.1-4.3c1.3-0.4,2.2-8.5,3-1l0.1-6.8c0.8-4,1.1-9.5,0.5-12.9
						c0.3-3.2-1.5-8.1-0.4-5.3l-0.8-10.7l0.3-0.1c0.2-10.5-2.2-21.7,0.2-33.7c-0.2-1.8-0.4-3.6-0.5-5.7c0-0.3,0-0.5,0-0.8
						c0-0.3,0-0.7,0-1c0-0.9,0-1.9,0-2.9c0-2,0.1-4.2,0.2-6.6c0,0,0.3-0.6,0.6-1.3c0.3-0.7,0.6-1.3,0.6-1.3c-0.1-2-0.1-4.6,0-7.4
						c-3.8-0.1-7.9-0.3-11.6-0.4c-3.6-0.1-6.7,0-7.9,0.4c-0.1,0-0.3-0.1-0.4-0.1c-0.1,0-0.2-0.1-0.3-0.1c-0.2-0.1-0.4-0.2-0.6-0.2
						c-0.4-0.2-0.8-0.3-1.3-0.4c-1-0.2-2.1-0.4-3.3-0.5c-2.4-0.2-5.3-0.2-8.2-0.1c-5.9,0.2-12.2,0.6-16.2,0.3l-0.3,1.5
						c-5.5-0.1-10.8,0.3-17.6,1l0.4,1.3c-5.9,1.1-15.1-1-24.5-0.8c0.6-0.5,3-0.4,4.7-0.1c-11.1-3-23.5,2.2-33.6,0
						c-2.5,0.5-4.3,0.3-6.1,0c0.2,0,0.4,0,0.6-0.1c-0.3,0-0.6,0-1,0c-1.1-0.2-2.3-0.5-3.5-0.7c1.1,0.3,2.1,0.6,2.9,0.7
						c-1.9,0-4.9,0.2-7.8,0.5l-1.2-1.4c-0.2,0-0.4,0-0.7,0c-2.8-0.5-2.3,0.7-0.8,1.8c-1.5,0.2-2.8,0.5-3.8,0.9
						c-2.3-2.3-7.6,0.8-10.7-1.7c-1.9,1.2-14.5,0.9-16,3.5c-0.1-0.3-0.9-0.5,0.6-0.5c-3.2-0.3-6.4-0.6-9.3,0.1l-1.4-1.8l-7,2.5
						c-4.3-1.1-6-1.8-1.8-3.2c-10.2,2.2-8.3,0.8-17,3l0.4-1.2c-3.1,0-8.1,1.6-10,0.7C140.3-6,112.8-4,95-6.1c3.5,3.5-8.3-1.6-9,1.1
						c-1-0.8-3.5-1.3-0.6-2c-9.1,0.8-13.7-1.3-20,1c-1-0.8,2-1.2,1-1.7c-0.7,0.2-2.9,0.7-3.8,0.2c-0.9-0.5,1.3-0.7,2.8-1.1
						C56-8.4,55-5.9,54.4-3.5c-4.7-1.1-7.1-1-10.5,0.6c-1.6-0.8-4.4-1.6,1.4-1.9C42-4.9,25.4-5.9,25.1-4c-1-0.5-4.5-0.1-5.4,0.1
						C15.5-4,13.3-4,11.1-4.1C8.4-4.1,5.7-4.1,1-4l2.9,0.3C3.2-2.9,2.2-2.6,0.8-2.5c0.1,1.4-0.1,2.7-0.2,4.3
						C0.4,3.4,0.3,5.4,0.4,7.7L0.2,7.5c-0.1,1-0.2,2-0.3,2.8c-0.1,0.8-0.1,1.5-0.2,2.1c-0.1,1.1-0.1,1.9-0.2,2.6
						c0,1.4,0.1,2.1,0.1,2.8c0.2,1.4,0.3,2.8-0.6,9.3l1.4-0.7C3.6,27.6-1.3,38-0.1,45.6l0.8-2.7C1.7,47-3.5,54.4-3.9,58.6
						c-0.3,0.9-0.4-1.4-0.6-2.7c-1.8,10.9,1.9,1.4,2.3,9.5c-1,1.5-2.6-1.9-2.8,3.5c-0.8,2.7,3.3,15.9,1.4,23.3
						c0.8-1.6,1.6-3.3,2.2,0.5c0.3,5.8-3,15.6-0.5,20.9c-0.2,0.7-0.4,1-0.6,1c0.6,4.4,1.1,14.4,2.4,17c-5,4.1,2.4,27.5-2.2,27.4
						l0.2,13.6l-0.5-0.4c-0.3,8.7,0.8,11.8,1.9,14.8c-0.3,2-0.7,0.5-1,0.4c-0.9,12.7-0.7,14,1.6,24.6l-1.5,1.1
						c0.9,2.9-2.3,18.4-0.6,30.8c-0.2-0.1-0.5-0.4-0.7-1.4c1.7,14-4.1,33.5,1.3,38.7l1.3,9.2c0.4-12,2.3,1.8,3.2-3.1
						c0.3,4.7-1.6,12.2-1.9,6.4l0.3-0.9c-2.8-2.1-1,14.9-2.9,14.5c0,7.7-0.1,15.4-0.3,23c-0.1,3.9-0.2,7.7-0.4,11.5
						c-0.1,5.7-0.3,11.3-0.4,16.9c5.9,0.1,11.7,0.2,17.5,0.3c3.8,0.1,7.6,0.2,11.4,0.2l-2.5-2.2l7.7,0.1c2,0.5,2.7,1.7-2.8,1.6
						c2.9,1.2,9.2-1,9.4-1.5c10.7,0.9-4.2,2.6-0.9,2.6l4.5-0.2l-1-0.3c3.6-0.9,3.9-1.8,10.5-1.7c4.2,0.4,2.1,1.4,3.8,1.4
						c0,0.2,0.5,0.2,2.5,0.1l9.7,0.2l-3.9-1.7c4.3-0.9,9.1,0.1,4.6-1.9c6.6,3,36.1,1.1,40.2,2c6-1.3,12-1.2,19.3-1.1
						c-1.8-0.4-2.9-2.3,3.4-2.1c-2.3,4,11.6,1.7,16.7,4.6c-4.6-1.9,18-0.5,10.8-3.2c5.3,0.3,0.3,1.5,4.3,2.5
						c12.6-1.6,27.8,1,43.3,0.5c0.2-0.5-2.4-1.3,1-2.1l8.2,2.6c3.1-0.3,2.8-3,8.5-1.2c-0.8-0.4-2-1.1,0.1-1.3
						c30.5,2.6,62.3-2.1,93.3,2.7c-4.2-1-1.4-1.1,1.8-1.2c-2.1-0.2,0-1.3-0.4-2l13,2c2.4-2,13.9-0.1,15.3-2l-4.1,0.3
						c5.5-2.2-7.6-5-6.8-7.9c-6.1,2.5-16.1-3.8-26.2-0.1c-2.2-0.6,1.9-0.9,0.7-1.6c-2.5,1.2-5.6,1.5-11.3,0.9l0.6-0.3
						c-16,0.3-22.8-0.9-40.8-1.7l1.3,1.4c-3.9-0.2-4.7-0.6-6.5-1c-4.4,2.2,10.8,0.1,6.8,2.5c-5.1-2.9-27.2,0-30.7-3.3
						c-5.9,0,1.7,1.6-4.2,1.6l-1.6-0.9l-1.5,1.1c-3.9-0.2-5.9-1.3-6-2.1c0.9,0.1,2.7-0.2,3.7-0.3c-5-1-14.2,0.4-16,0l5.7,0.5
						c-16.2,0.8-36-0.3-51.7,1.5l1.2,0.7c-12,1.2-9.6-0.7-22.7-0.2l0.5-0.2c-2.6,0.7-6.1,1-9.7,0.9c3.3-0.8-6.2-1.5-1.9-2.4
						c-13,1.3-6.4,1-15,3.5l-2-1.1c-2.9,1-3.2,1.5-9.7,1.8c5.4-1-4.2-1.7,1.8-3c-13.8-2.4-20.4,2.5-26.7-1.1
						c-6.3,3.1,11.9,1.7,8.4,2.4c3,1-5.2,2.3-9.5,2c-4.4-0.1-7.5-3.9-18.5-3.9c1.1,0,1.2-0.2,2.3-0.2c-4.1-0.8-8.1,1.1-13.2-0.2
						c-2.8,1.9-6.6-0.1-7.4,2.3l10.1-0.5c-5.7,0.6-11.1,3.4-20.6,2.1c0.7-0.5,3.6-1.1,5.5-1.5c-2.8-0.7-5.3,0.5-8.2-0.3
						c0.8-2.4,12.3-0.5,18.5-2.3c-3-1-11.7,1.7-8.6-0.9c-2.2,1.6-4.9,1.5-8.1,1.3c-1.6-0.1-3.2-0.2-4.9-0.2c-0.9,0-1.7,0.1-2.6,0.2
						c-0.5,0.1-0.9,0.2-1.4,0.3c-0.4,0.1-1,0.2-1.2,0.4c0,0,0.2-1.4,0.3-1.4c-0.3,0.1-0.7,0.3-1.2,0.5c-0.5,0.2-1.2,0.4-1.7,0.3
						c0,0,0.7-0.5,1.3-0.9c0.6-0.5,1-0.9,1-0.9c-0.6,0.4-1.4,0.5-1.9,0.4c-0.6-0.1-1-0.3-1.2-0.6c0.4-1.3,0.8-2,0.4-2.6
						c0,1.7-0.4,2.3-0.9,2.8c-0.6,0.5-1.2,0.5-1.8,2.2c0,0,0,0,0,0c0,0-0.1,0-0.1,0c-0.5-1.5-0.5-3.1-0.2-4.1
						c0.1-0.5,0.3-0.9,0.5-1.3c0.1-0.2,0.2-0.3,0.4-0.5l0.2-0.2c0.1-0.1,0.1-0.3,0.2-0.4c1.1-2.4,2.3-5,2-13.4
						c0.2,2.3-0.9,8.5-1.5,5c0.3-3.2,0.8-7.4,1.6-9.4c-0.3-11.1-1.5,1.7-2.3-3c1.7-3.8-0.7-5.5-1.3-10.4l1.4,0
						c0.9-12.7-3-3.4-1.9-14.8l2,4.8l-0.5-6l1.6,1.2c-1.2-6.5-0.9-8.5-0.4-14.8c-1,1.5-2.6-0.8-2.7-6.5c0.9-3.8,1.4,2.1,1.2-5.8
						c0.9,1.8,2,3.8,0.7,7.2c0.5,0.4,0.9,1.8,1.4,2.1c1-4.1,0.2-10.4,0.2-13.3c-0.1,1.1-0.1,2.4-0.3,3.1l-2-11.6
						c0.5-1.8,1-0.4,1.4,1.1c-0.2-2.3-0.8-4-0.9-7.4c1.2,0.9,2.4,0.7,2.9,5.5l-1.3-11c0.5-0.7,1.4-5.6,1.8-4.2
						c0.7-6.1-2.3-15-1.4-23.1c-0.2-0.4-0.4-1.3-0.6-3c0.3-7.6,1.7-14.3,0.1-23.4l2.1-5.1c-0.5-7.1-2.7,6.9-3.5-4.8
						c-0.7-8.3,1.8-3.1,2.4-6c-1.1-4.1-3.2-11.3-1.5-19C11,157.9,10.6,159.9,10.8,162.3z M9.9,75.2c0.3,1.7,1.2,5,0.4,6.3
						C8.6,79.6,9.4,78.1,9.9,75.2z M60.4,3.1c-1.3,0.5-3.2,0.2-5.4-0.3C56.6,2.7,58.4,2.7,60.4,3.1z M360,76c0-0.1,0-0.1-0.1-0.2
						C360.5,72.1,360.3,73.4,360,76z M359.4,83.8c0.2,0.8,0.4,0.7,0.6,0.4c-0.4-0.5-0.4-2.3-0.3-4.3
						C359.3,80.5,359.1,81.5,359.4,83.8z M55.8,358.8l-1.5-0.4C57.7,358,56.7,358.4,55.8,358.8z"/>
					<path fill="#FFFFFF" d="M45.4,5.1c-0.5-0.2-0.6-0.5-0.7-0.8C44,4.5,44,4.8,45.4,5.1z"/>
					<path fill="#FFFFFF" d="M11.6,216.4l0,0.3c0.1,0.1,0.2,0.2,0.3,0.3L11.6,216.4z"/>
					<path fill="#FFFFFF" d="M315.8,5.9c-1.6-0.2-2.5-0.5-3.1-0.7C312.6,5.5,313.3,5.8,315.8,5.9z"/>
					<path fill="#FFFFFF" d="M361.8,125.2l-0.4-5c0.1,2.4-0.2,3.3-0.5,4.5C361.3,124.6,361.8,123.7,361.8,125.2z"/>
					<path fill="#FFFFFF" d="M352.9,168.7c0.2,0.7,0,1.6,0.2,2.3l0.7-0.2C353.7,167.6,353.2,165.4,352.9,168.7z"/>
					<path fill="#FFFFFF" d="M357,129.8c-1.2,0.4-0.8,3.5-0.6,7c0-0.2,0-0.4,0-0.6C358.2,137.3,357.6,133.6,357,129.8z"/>
					<path fill="#FFFFFF" d="M356.5,137.7c0.1,1.1,0.1,2.2,0,3.2C357.2,141.4,356.7,139.6,356.5,137.7z"/>
					<path fill="#FFFFFF" d="M360.2,93.7c-0.3,1.7,1.6,1,1.1,2C362.8,97.6,359.4,84.6,360.2,93.7z"/>
					<polygon fill="#FFFFFF" points="353,132.7 354.5,131.4 353.3,129.5 					"/>
					<path fill="#FFFFFF" d="M354.1,105l-0.4,5.6c0.3-0.1,0.4,0.6,0.5,1.5C354.3,108.7,354.6,104.9,354.1,105z"/>
					<path fill="#FFFFFF" d="M354.2,112.1c0,1.8,0,3.5,0.2,4.5C354.4,115.6,354.4,113.6,354.2,112.1z"/>
					<polygon fill="#FFFFFF" points="352.6,125 352.9,123.4 353,119.4 					"/>
					<path fill="#FFFFFF" d="M354.4,44.8l-0.4-6.1c-0.5-0.6-0.8,1-0.6,3.3C353.7,43.5,353.9,45.7,354.4,44.8z"/>
					<path fill="#FFFFFF" d="M350.3,63.3c0.3-1.7,0.6-1.8,1.1-2.7l-1.9-0.2L350.3,63.3z"/>
					<path fill="#FFFFFF" d="M349.9,45.5c-0.5-0.6-1.5-8.9-1.4-1.1C349,45,349.4,51.1,349.9,45.5z"/>
					<polygon fill="#FFFFFF" points="306.4,0.8 307.9,0.8 307.7,-2.3 					"/>
					<path fill="#FFFFFF" d="M225.2,8.1c7.2,0.7,1.7-1.9,8.3-1c1.7-0.7-5.4-0.7-3.6-1.4C225.5,6.5,223.2,6.1,225.2,8.1z"/>
					<path fill="#FFFFFF" d="M229.8,5.8c0.7-0.1,1.4-0.3,2.2-0.5C230.8,5.5,230.2,5.6,229.8,5.8z"/>
					<polygon fill="#FFFFFF" points="340.2,360.4 344.8,361 341.8,360 					"/>
					<path fill="#FFFFFF" d="M349.1,358.1l1.1,1.9l2.8-1.8C352,358.4,349.9,358.5,349.1,358.1z"/>
					<path fill="#FFFFFF" d="M13.8,62.3l-0.5-0.4c-0.5,0.7-0.5,1.8-0.6,4L13.8,62.3z"/>
					<polygon fill="#FFFFFF" points="12.3,125.5 12.4,124.4 10.6,126.4 					"/>
					<path fill="#FFFFFF" d="M14.6,178.5c0.1-2.2-0.3-4.7-0.2-6.9C14.7,176.3,12.4,179.1,14.6,178.5z"/>
				</g>
			</g>
		</g>
	</g>
</g>
</svg>
