<?xml version="1.0" encoding="utf-8"?>
<!-- Generator: Adobe Illustrator 18.1.1, SVG Export Plug-In . SVG Version: 6.00 Build 0)  -->
<svg version="1.1" id="Layer_1" xmlns="http://www.w3.org/2000/svg" xmlns:xlink="http://www.w3.org/1999/xlink" x="0px" y="0px"
	 viewBox="0 0 360 360" enable-background="new 0 0 360 360" xml:space="preserve">
<g>
	<defs>
		<rect id="SVGID_1_" x="1.7" y="1" width="358" height="358"/>
	</defs>
	<clipPath id="SVGID_2_">
		<use xlink:href="#SVGID_1_"  overflow="visible"/>
	</clipPath>
	<g clip-path="url(#SVGID_2_)">
		
			<image overflow="visible" width="837" height="573" xlink:href="produce.jpg"  transform="matrix(0.7722 0 0 0.7649 -129.5823 -20.2832)">
		</image>
	</g>
</g>
<g>
	<g>
		<g>
			<g>
				<g>
					<path fill="#FFFFFF" d="M362.1,353.6c-0.1,2.1,0.8,1.3,0.9,1.7C362.8,351.7,361.9,353.6,362.1,353.6z"/>
					<polygon fill="#FFFFFF" points="360.2,319.1 360.6,319.7 359.7,314.7 					"/>
					<path fill="#FFFFFF" d="M360.2,286.9c-1.4,3,0.2,11.7-0.3,17.4l-0.3,0.9l1.1,2.6C360.6,300.9,359.8,291.9,360.2,286.9z"/>
					<path fill="#FFFFFF" d="M363.3,269.8c-0.6,1.1-0.5-3.7-0.2,4c0.1-0.4,0.1-0.5,0.1-0.7C363.3,272.4,363.3,271.4,363.3,269.8z"/>
					<path fill="#FFFFFF" d="M363.3,273.1C363.3,276.4,363.8,270.8,363.3,273.1L363.3,273.1z"/>
					<path fill="#FFFFFF" d="M363,257.4l0.5,4.5c0.3-0.9,0.4-4.9,0.6-3.4C363.8,253.9,363.5,254.8,363,257.4z"/>
					<path fill="#FFFFFF" d="M361.9,253.2l0.2,2.3C362.3,255.1,362.3,254.5,361.9,253.2z"/>
					<path fill="#FFFFFF" d="M362.6,260.4l-0.4-4.9c-0.2,0.6-0.7,0.7,0.2,2.3C361.9,257.3,362.3,258.3,362.6,260.4z"/>
					<path fill="#FFFFFF" d="M362.4,263.2c-0.3,2.5-0.5,5.7-1,1.3C361.6,273,362.6,271.7,362.4,263.2z"/>
					<path fill="#FFFFFF" d="M358.8,285.3l-0.4,3.3l0.5,2.9C358.6,290.1,359.2,285.1,358.8,285.3z"/>
					<path fill="#FFFFFF" d="M363.7,229.6c-0.3-0.3-0.8,1.5-1.2,1.8l0.3,3.3C363.1,233,363.3,229.8,363.7,229.6z"/>
					<path fill="#FFFFFF" d="M362.5,231.4l-0.5-4.9C361.9,230.9,362.2,231.7,362.5,231.4z"/>
					<polygon fill="#FFFFFF" points="360.3,252.4 361.4,260.5 360.3,250.8 					"/>
					<polygon fill="#FFFFFF" points="363.7,210.7 364.4,213.5 363.4,208.6 					"/>
					<path fill="#FFFFFF" d="M363.6,198.2c0.6,2.1,1-2.8,1.3-0.6c-0.1-3.4-0.6-6.3-1.1-8.9C364.2,191.5,364.1,194.4,363.6,198.2z"/>
					<path fill="#FFFFFF" d="M363.3,184.3c0.1,1.4,0.4,2.8,0.7,4.4C363.8,187.2,363.6,185.8,363.3,184.3z"/>
					<path fill="#FFFFFF" d="M362.1,218.1c0.2-0.4,0.7-1.1,0.9-3.9l-0.9,1.9C362.1,216.7,362.1,217.4,362.1,218.1z"/>
					<path fill="#FFFFFF" d="M362.1,216.2L362.1,216.2c0.1-2.2,0.1-3.6,0.1-4.3C362.2,212.5,362.2,213.8,362.1,216.2z"/>
					<path fill="#FFFFFF" d="M362.1,218.6c0-0.2,0-0.3,0-0.5C362.1,218.3,362,218.4,362.1,218.6z"/>
					<path fill="#FFFFFF" d="M361.1,239.4c-0.5-2.9-1-8.9-1.7-3.1C360,238.4,360.4,235.1,361.1,239.4z"/>
					<path fill="#FFFFFF" d="M361.1,221l-0.2,5.2c0.2-0.1,0.6-1,0.8,0.4L361.1,221z"/>
					<polygon fill="#FFFFFF" points="360.8,218.4 361.1,221 361.1,219 					"/>
					<path fill="#FFFFFF" d="M362.5,193.3c-0.4-2.3-0.4-4.7-0.5-7.5c-0.2,3-0.3,6.1-0.3,9C362,195.2,362.5,196.5,362.5,193.3z"/>
					<path fill="#FFFFFF" d="M362.2,204.4c0-0.2,0-0.4,0-0.5C362.1,204.2,362.1,204.5,362.2,204.4z"/>
					<path fill="#FFFFFF" d="M362,158.2c-0.1,0.2-0.1,0.3-0.2,0.4c0,0,0.1,0.1,0.1,0.1L362,158.2z"/>
					<path fill="#FFFFFF" d="M361.6,195.3c-0.2,2.3,0,3.6,0.3,4.9c-0.1-1.7-0.1-3.5-0.1-5.4C361.6,194.6,361.5,194.6,361.6,195.3z"
						/>
					<path fill="#FFFFFF" d="M362.9,176.6c-0.2,1.2-0.3,2.5-0.5,3.9C362.7,179.4,363.1,177,362.9,176.6z"/>
					<path fill="#FFFFFF" d="M362.4,203.2c0,0.1,0,0.2,0,0.3C362.6,202.8,362.5,202.8,362.4,203.2z"/>
					<path fill="#FFFFFF" d="M362.4,203.2c-0.1-1.2-0.3-2.1-0.5-3c0.1,1.4,0.2,2.6,0.3,3.7C362.2,203.6,362.3,203.4,362.4,203.2z"/>
					<path fill="#FFFFFF" d="M356.5,149.9c0.8,0.4,1.5,6.3,0.7,11.4c0.6,5,3.2,1.7,4.7-2.7c-0.3-0.2-0.7-0.2-1.1-5.3
						c-0.4,1.8-1,11.5-1.7,7.1c-0.4-6.9,0.3-5.6,0.7-9c-1,2.8-1.4-8.7-2.9-7.2l0.5,6C357.1,150.4,356.7,148.2,356.5,149.9z"/>
					<path fill="#FFFFFF" d="M361.8,168.5l0.1,2.1c0.1-2.4,0.5-4.2,1.1-7.4c-0.4-3.5-0.7-4.3-0.9-4.5l-0.1,10.5L361.8,168.5z"/>
					<path fill="#FFFFFF" d="M361.9,180.2c-0.9-1.7-1.2-6.8-2.2-3.6c0.1,6.3,0.7,4.4,1.1,8.1C360.6,174.6,361.3,187.6,361.9,180.2
						c0,2.1,0.1,3.8,0.1,5.5c0.1-1.8,0.2-3.6,0.4-5.2c0,0.1,0,0.2-0.1,0.2l0,0c0,0,0,0,0,0c-0.1,0.4-0.2,0.6-0.1,0.1
						c0,0,0-0.2,0-0.2C362.1,180.6,362,180.4,361.9,180.2c0.2-2.9,0.2-0.5,0.3,0.5c0,0,0.1,0.1,0.1,0.1c0,0,0,0,0,0l-0.5-10.1
						C361.7,172.8,361.8,175.5,361.9,180.2z"/>
					<path fill="#FFFFFF" d="M357.5,230.9c0.1-0.3,0.1-0.3,0.2-0.3C357.6,230,357.6,229.7,357.5,230.9z"/>
					<path fill="#FFFFFF" d="M358.1,226.8c0.1,0.7,0.5,1.3,0.4,3.7c-0.3,2.1-0.4,0-0.7,0.1c0.2,1.4,0.6,5,1,0.5l-0.1-0.7
						c0.3-4.1,1.4-9.3,1.5-8.6C359.4,223,358.8,224.1,358.1,226.8z"/>
					<path fill="#FFFFFF" d="M359.7,203.2l-0.4-8.4l-0.7,4.3l0.4-0.2C358.8,203.6,359.4,202.6,359.7,203.2z"/>
					<polygon fill="#FFFFFF" points="362.4,157.2 363.3,158.3 362.1,153.5 					"/>
					<polygon fill="#FFFFFF" points="362.3,146.3 363.1,146.7 362.6,143.8 					"/>
					<path fill="#FFFFFF" d="M8.4,122.8l0.2,2.5C8.5,124.1,8.5,123.3,8.4,122.8z"/>
					<path fill="#FFFFFF" d="M8.4,104.9l-0.4-0.4C8.3,105.3,8.4,105.6,8.4,104.9z"/>
					<path fill="#FFFFFF" d="M232.2-2.4c-3.6-0.7-7.6-1.9-7.2-1l1.1,0.9C228.6-2.6,230.5-2.5,232.2-2.4z"/>
					<path fill="#FFFFFF" d="M48.1,2.8c0.3,0.1,0.7,0.2,1.1,0.3c0.9-0.3,1.7-0.6,2.4-0.8C50.6,2.4,49.4,2.6,48.1,2.8z"/>
					<path fill="#FFFFFF" d="M45.6,6.4l-4.8-0.6C41.9,6,43.4,6.2,45.6,6.4z"/>
					<path fill="#FFFFFF" d="M9.3,220.6l0.9,2.9C10.2,219,9.7,221,9.3,220.6z"/>
					<path fill="#FFFFFF" d="M362,34.2c0.3-3.1,0.5-5.6,0.5-7.8C362,30.2,361.3,33.2,362,34.2z"/>
					<path fill="#FFFFFF" d="M-0.8,115.8c0.2,1.5,0.3,2.2,0.5,2.1C-0.4,116.3-0.6,115.4-0.8,115.8z"/>
					<path fill="#FFFFFF" d="M362.5,17.5c-0.1,0.5-0.1,1.1-0.2,1.6c0.1,2.3,0.3,4.6,0.2,7.3C362.9,23.7,363.1,20.5,362.5,17.5z"/>
					<path fill="#FFFFFF" d="M223.8,350.3c0.3,0,0.6,0.1,0.8,0.1C224.7,350.2,224.4,350.2,223.8,350.3z"/>
					<path fill="#FFFFFF" d="M327.2,359c-1,0.1-2.7,0.1-4.2,0.1C323.7,359.1,325,359.1,327.2,359z"/>
					<path fill="#FFFFFF" d="M362.7,102.3C362.8,104.6,362.8,102.6,362.7,102.3L362.7,102.3z"/>
					<path fill="#FFFFFF" d="M359.3,113.6c-0.1-0.5-0.2-0.9-0.4-0.9C359.1,112.8,359.2,113.1,359.3,113.6z"/>
					<path fill="#FFFFFF" d="M349,2.8c-0.1,0-0.1,0-0.2,0C349.5,2.9,349.4,2.9,349,2.8z"/>
					<path fill="#FFFFFF" d="M362.3,105.8c0.1-0.9,0.2-1.9,0.3-3C362.5,103.3,362.4,104.2,362.3,105.8z"/>
					<path fill="#FFFFFF" d="M362.7,105.3c0,0.8-0.1,1.4-0.1,2C362.8,107.6,362.9,107.3,362.7,105.3z"/>
					<path fill="#FFFFFF" d="M362.7,99c0,1.3,0,2.6-0.1,3.8c0.1-0.5,0.1-0.6,0.1-0.5C362.7,101.6,362.7,100.6,362.7,99z"/>
					<path fill="#FFFFFF" d="M33.7,352.6c0.2,0,0.3,0,0.5,0.1C36.6,352.3,35.6,352.4,33.7,352.6z"/>
					<path fill="#FFFFFF" d="M171.8,6.7c0.1,0,0.2,0,0.3,0C171.9,6.6,171.8,6.6,171.8,6.7L171.8,6.7z"/>
					<path fill="#FFFFFF" d="M163.5,7.3c3.5-1.1,5.6-0.9,8.3-0.7L169,4.1L163.5,7.3z"/>
					<path fill="#FFFFFF" d="M8.6,165.7l0.8-5.9c1.3,7.1,0.8,12.2,1.9,6.7c-2.7-0.8-0.3-22.8-3-23.6l0.6-3.9c0,1.1,0.1,1.3,0.1,2.4
						c1.3-7.5-2-5.6-1.6-15.2c0.2-3.4,0.6-5.7,0.9-3.4l-0.7-7.5c0.1-2.2,0.5-1.7,0.5,0.5L8,104.4l0.1,0.1c-0.4-1.6-1.1-5.3-1.4-7.1
						C7.1,94.4,7,98.8,7.3,98l-0.7-6.3c0.7-2.6,1.4,2.7,1.3,7.1c2.7-5.9-0.7-5.3,0.9-18l0.3,6c1.5-3.9,1-8.5,1.9-15.3
						C10.6,73,8.7,84.9,8,78c0.2-1.9,0.3-4.5-0.2-8.2c1,0,0.7-3.7,0.7-8.2L9.7,62c-0.4-4.9-1-4.5-1.6-7.4c0.1-5.5,1.1-6.6,2-7.9
						c0.2-8.8-1.6,6-1.8-4.3c0.5-7.3,0-12.4-0.8-21.1c0.4-5.1,0.8,0.9,1.1-0.9l-1-4.5c0-1.1,0.3-0.7,0.5-0.6c-0.2-1.9-0.5-2-0.8-2.3
						c-0.2-0.2-0.3-0.4-0.4-1c-0.1-0.3-0.1-0.7-0.2-1.1c0-0.1,0-0.2,0-0.4c0-0.1,0-0.2,0-0.3c0-0.2,0-0.4-0.1-0.6
						C5.8,8.9,6.2,7.1,6.6,5.6c1.5,0.3,3,0.6,4.2,0.7l0.5,0l0.3,0l0.4,0c0.6,0,1.2,0,1.7,0C14.9,6.3,16,6.1,17,5.9
						c1.8,0.4-0.9,0.8-0.3,1.3c10.2-1,8.7-0.8,17.1-2.2l7.1,0.8c-5.2-1,1.4-2.1,7.3-3c-1.9-0.5-3.4-0.9-4.5-1.1L53,1.1
						c1.1,0.2,0.2,0.6-1.3,1.2c0.6-0.1,1.2-0.2,1.7-0.3c3.3,0.5,1.6,1.2-0.8,1.9c-1.1-0.3-2.3-0.5-3.4-0.8c-2.3,0.8-4.5,1.6-4,2.4
						c0.6-0.1,1.8-0.3,3.1-0.3c-0.6,0.2-1,0.4-0.7,0.5c0.3,0.1,1.3-0.1,2.8-0.5l2.1,1.4L53,6l12.2,0.9C74,5.5,81.5,3.4,95.4,2.8
						c-3.4,1-0.7,1.7-0.9,2.9C90.7,4.4,83.7,6.3,76.6,6c3.7,0.1,2.9,0.7,2,0.9l12.8-1.2c-0.3,1,2.7,0.8,6.1,1.2
						c-2.5-2,9.5-1.3,14.8-1.9c0.3,0.7-0.9,1.4-7.3,1.2c7,1.5,9.1-2.4,15.9-1.1c-1.6,0-2.4-0.1-3,0.3c3.6-0.6,12.5-0.1,10.4,0.5
						l-1.5,0c10.3,0.2,31.4,0,32.9-1.7c0.1,0.2-1.4,2.1-2,2.4L176,0.8c-1.6,1.5,4.6,4.9-3.9,5.8c2.5,0.2,5.5,0.5,10.7-0.1
						c-1.7-0.2-4.2-2.1-1.9-2.2c6.3,1.6,4.4,0.9,12.1,2.3c-2.5-0.3,0.3-2.6,4.2-2.5c-0.6,0.3,0.3,2.3-1.1,2.5l9.9-2.2
						c-2.5,0.4-0.4,1.9,1.8,2.5c-1-0.4,8.5,0,11.2-0.2l-4.2-0.5c11.1,0.3,11-3.2,22.1-3c-1.3,0.5-3.3,2.9,2.3,3.1
						c2.6-1.2,11.4-5.5,21.2-6.4l1.9,0.7l7.5-0.8c-4.7,1.7-17.8,5.4-24.9,6.8c4.2,0.5,1.2,0.8,7.4,0.7c2.2,0.6-3.4,0.9-5.2,1
						l14.5,0.4c-0.6-1.3,11.1-1.3,10.6-2.5l-15.8,1.4c-0.6-1.3,9.1-3.8,19.4-3.6c2.6,0.5-2,2.4-1.7,2.8c1.3-0.5,9.8-0.9,10.7-0.6
						l-4.4,0.7c5.7,0.5,9.4-1.8,16.3-0.5c2.4,0.1,7.1,1.7,7.5,0.9c-3.9-1.5-4.6-6.3-2.1-7.4c0.8,0.1,12.5,1.5,15.2,2.2
						c3.9,1.2-5.9,2.9-2.5,3.9c0.1-0.4,2.3-0.8,3.2-1c2.5,0.3-1,1.1,4.4,1c0.9-1.4,11,0.1,2.6-1.2c5.3-0.4,5.6,0.3,11.9,0.2
						c-2-0.9,5.6-3,10.9-3.4c-0.3,0.3,0.9,0.8,1.5,1c3.1,0,5.7,0.1,7.9,0.2c-0.1,3-0.2,5.8-0.4,8.6c-0.1,3-0.2,6-0.2,9.7
						c-0.3,0.9-0.7,5.8-1.3,3.7c0.2,1.5,0.7,2.8,0.7,5.9c-1.2,6.1-0.2-7-1.6-2.4c0.8,0.4,1.1,8.1,1.6,12.6
						c1.2-1.4,0.2-10.3-0.3-14.8c1.7,0,3.5,7.8,4.2,18.4c0.4,8.4-1.1,3.7-0.9,5.1c-0.3,15.8,2.9,13.5,1.7,26.6
						c-1.1,5.2-2.1,0.2-2.9,1.4c-0.4-6.9,0.7-10.5,0.6-15.2l-0.5,5.7c-0.4-2.2-0.6-6.8-0.3-9.3c-1,4.4-0.2,26.8-1.1,39
						c0.4,2.2,0.7,5.9,1.2,4.1l-0.2-3.9c0.9-3.6,1.2,7.3,1.6,2.4c0.6,5.2,1.6,11,1.1,18.3l-1.2,1.4c0.4-0.2,0.7-4.8,0.4-6.8
						c0.5,3-1.7,11.2-0.1,14.5l0.8-5.1c0.6,5.2,1.9,11.6,1.5,18.1c1.2-2.9-0.1-1.5,1.3-6.1c-1.8,4,0.1-16.6-1.8-10.1
						c1.6-4.7,0.7-8.2,2.1-14.3c-0.4,0.2-0.8,2.2-0.6-3.2c-0.1-0.2-0.3-0.8-0.4-1.2c0-0.2,0-0.2,0-0.4c0,0.1,0,0.2,0,0.3
						c-0.1-0.2-0.1-0.3,0,0.1c-0.2,1.3-0.4,2.3-0.6,2.8c-0.9-2.7-0.9-11.3-1.4-14.3c0.2-3.2,0.5,1.3,0.9-0.4l-0.7-4.4
						c0.9-0.4,1.5-8.6,2-1l0-6.8c0.5-4,0.7-9.6,0.3-13c0.2-3.2-1-8.1-0.3-5.3L362,53.1l0.2-0.1c0.1-10.6-1.5-21.8,0.1-33.9
						c-0.1-1.8-0.2-3.6-0.3-5.7c0-0.5,0-1.1,0-1.6c0-0.6,0-1.3,0-2c0-2,0-4.2,0.1-6.6c0,0,0.2-0.6,0.4-1.2c0.2-0.6,0.4-1.3,0.4-1.3
						c0-1.1,0-2.3,0-3.7c-2.1,0-4.3-0.1-6.7-0.1c-2.3-0.1-4.6-0.1-6.8-0.2c-2.6-0.1-4.7-0.1-5.6,0.3c-4.9-2.1-22.2-0.5-30.2-0.8
						l-0.3,1c-5.5-0.1-10.8,0.2-17.7,0.6l0.4,0.9c-5.9,0.7-15.2-0.6-24.6-0.5c0.6-0.3,3-0.3,4.7,0c-11.2-2-23.6,1.5-33.8,0
						c-2.5,0.3-4.4,0.2-6.1,0c0.2,0,0.4,0,0.6,0c-0.3,0-0.6,0-1,0c-1.1-0.2-2.3-0.3-3.5-0.5c1.1,0.2,2.1,0.4,3,0.5
						c-2,0-4.9,0.1-7.8,0.4l-1.2-1c-0.2,0-0.4,0-0.7,0c-2.8-0.4-2.3,0.5-0.8,1.2c-1.5,0.2-2.8,0.3-3.8,0.6
						c-2.3-1.6-7.6,0.5-10.8-1.1c-2,0.8-14.6,0.6-16.1,2.3c-0.1-0.2-1-0.3,0.6-0.3c-3.2-0.2-6.5-0.4-9.4,0.1L183.8-1l-7.1,1.6
						c-4.3-0.7-6.1-1.2-1.8-2.1c-10.3,1.4-8.3,0.5-17.1,2l0.4-0.8c-3.1,0-8.1,1.1-10,0.4c-7-1.5-34.6-0.2-52.5-1.6
						c3.5,2.3-8.3-1-9.1,0.8c-1-0.6-3.5-0.9-0.6-1.3C76.9-1.5,72.3-2.9,66-1.4c-1-0.6,2-0.8,1-1.1c-0.7,0.1-2.9,0.5-3.9,0.2
						c-0.9-0.3,1.3-0.5,2.8-0.7C56.6-3,55.6-1.3,55,0.3c-4.7-0.8-7.1-0.6-10.5,0.4c-1.7-0.5-4.4-1.1,1.4-1.3
						c-3.3-0.1-20-0.8-20.3,0.5c-1-0.3-4.6-0.1-5.4,0.1c-3.7-0.1-5.7-0.1-7.6-0.1c-1.2,0-2.4,0-3.9,0C7-0.1,5.1-0.1,2.7,0l2.8,0.2
						C4.5,0.7,3.4,0.9,2,1c0,1.3-0.1,2.7-0.1,4.4c0,0.8-0.1,1.8-0.1,2.8c0,0.5,0,1,0,1.6c0,0.3,0,0.5,0,0.8c0,0.2,0,0.5,0,0.7
						L1.6,11c-1.1,13.3,0.5,5.8-0.7,18.9l1-0.7c2.1,1.2-1.2,11.6-0.4,19.3l0.5-2.8c0.7,4.2-2.8,11.6-3.1,15.8
						c-0.2,0.9-0.3-1.4-0.4-2.7c-1.2,11,1.3,1.4,1.5,9.6c-0.7,1.5-1.7-1.9-1.8,3.6C-2.4,74.7,0.3,87.9-1,95.4c0.5-1.7,1-3.3,1.4,0.5
						c0.2,5.8-2,15.7-0.3,21c-0.1,0.7-0.3,1-0.4,1c0.4,4.4,0.7,14.4,1.6,17.1c-3.3,4.1,1.6,27.6-1.4,27.5L0,176.1l-0.3-0.4
						c-0.2,8.7,0.5,11.8,1.3,14.9c-0.2,2-0.5,0.5-0.7,0.4c-0.6,12.8-0.5,14,1,24.7l-1,1.1c0.6,2.9-1.6,18.4-0.4,31
						c-0.1-0.1-0.3-0.4-0.4-1.4c1.2,14.1-2.8,33.7,0.9,38.9l0.9,9.3c0.3-12,1.6,1.8,2.2-3.2c0.2,4.7-1.1,12.2-1.3,6.4l0.2-0.9
						c-1.9-2.1-0.7,14.9-1.9,14.6c0,7.4-0.1,14.7-0.2,22c-0.1,3.6-0.1,7.3-0.2,10.9c0,2.2-0.1,4.4-0.1,6.5c0,2.7-0.1,5.4-0.1,8.1
						c5.6,0.1,11.1,0.2,16.6,0.3c4.2,0.1,8.4,0.1,12.5,0.1l-2.6-1.5l7.7,0.1c2,0.3,2.7,1.1-2.8,1.1c2.9,0.8,9.2-0.7,9.4-1
						c10.8,0.6-4.2,1.7-0.9,1.7l4.5-0.1l-1-0.2c3.6-0.6,4-1.2,10.6-1.2c4.2,0.3,2.2,0.9,3.8,1c0,0.1,0.5,0.2,2.5,0l9.7,0.1l-3.9-1.2
						c4.3-0.6,9.2,0.1,4.7-1.2c6.6,2,36.3,0.7,40.4,1.4c6-0.8,12-0.8,19.4-0.7c-1.8-0.2-2.9-1.5,3.4-1.4c-2.3,2.7,11.7,1.2,16.8,3.1
						c-4.6-1.3,18.1-0.3,10.9-2.1c5.3,0.2,0.3,1,4.4,1.6c12.7-1,27.9,0.7,43.6,0.3c0.2-0.4-2.4-0.9,1-1.4l8.3,1.8
						c3.1-0.2,2.8-2,8.5-0.8c-0.8-0.3-2-0.7,0.1-0.9c30.7,1.7,62.6-1.4,93.8,1.8c-4.2-0.7-1.4-0.7,1.8-0.8c-2.1-0.2,0-0.9-0.4-1.3
						l13,1.3c2.4-1.3,14-0.1,15.3-1.4l-4.1,0.2c5.5-1.5-7.7-3.3-6.9-5.2c-6.1,1.7-16.2-2.5-26.3-0.1c-2.2-0.4,1.9-0.6,0.7-1.1
						c-2.6,0.8-5.6,1-11.4,0.6l0.6-0.2c-16.1,0.2-23-0.6-41-1.1l1.3,0.9c-3.9-0.1-4.7-0.4-6.5-0.7c-4.5,1.4,10.9,0.1,6.8,1.7
						c-5.1-1.9-27.4,0-30.8-2.2c-6,0,1.7,1.1-4.2,1.1l-1.6-0.6l-1.5,0.8c-3.9-0.1-5.9-0.9-6-1.4c0.9,0.1,2.7-0.1,3.7-0.2
						c-5.1-0.7-14.3,0.2-16.1,0l5.7,0.4c-16.3,0.6-36.2-0.2-51.9,1l1.2,0.4c-12,0.8-9.6-0.5-22.8-0.1l0.5-0.1
						c-2.6,0.4-6.2,0.7-9.8,0.6c3.3-0.5-6.3-1-1.9-1.6c-13,0.9-6.4,0.7-15.1,2.4l-2-0.7c-2.9,0.7-3.2,1-9.8,1.2
						c5.4-0.6-4.2-1.1,1.8-2C90,350.1,83.3,353.4,77,351c-6.3,2.1,12,1.1,8.4,1.6c3,0.7-5.2,1.5-9.6,1.3c-4.4,0-7.5-2.6-18.6-2.6
						c1.1,0,1.2-0.1,2.3-0.1c-4.2-0.5-8.1,0.7-13.2-0.1c-2.9,1.2-6.6-0.1-7.4,1.5l10.2-0.4c-5.8,0.4-11.2,2.3-20.7,1.4
						c0.7-0.3,3.6-0.7,5.5-1c-2.8-0.5-5.4,0.3-8.2-0.2c0.8-1.6,12.4-0.3,18.6-1.6c-3-0.7-11.7,1.1-8.6-0.6
						c-4.5,2.2-10.9-0.3-18.5,1.4l0.5-0.9c-1.2,0.1-3.7,0.6-5.8,0.6l4-1.2c-1,0.2-2.1,0.3-3.1,0.3l-0.8,0l-0.4,0l-0.2,0
						c-0.2,0-0.4,0-0.5-0.1c-0.7-0.1-1.2-0.4-1.6-0.5c0.2-0.7,0.2-1.2,0.1-1.7c0,0.9-0.1,1.4-0.2,1.8c0.3,0.2-0.1,0.5-0.5,0.8
						c-0.4,0.3-0.8,0.6,0,0.9c-0.5,0.1-1,0.1-1.4,0.2c-0.3-3.3,0.3-4.1,1-6.7c0.7-2.3,1.4-5.1,1.2-13.1c0.1,2.3-0.6,8.6-1,5
						c0.2-3.2,0.6-7.5,1.1-9.4c-0.2-11.2-1,1.7-1.6-3C9,320.7,7.3,319,7,314.1l1,0c0.6-12.8-2-3.4-1.3-14.9L8,304l-0.3-6l1.1,1.2
						c-0.8-6.5-0.6-8.5-0.3-14.9c-0.7,1.5-1.8-0.8-1.8-6.5c0.6-3.9,0.9,2.2,0.8-5.9c0.6,1.8,1.4,3.8,0.5,7.3
						c0.3,0.4,0.6,1.8,0.9,2.2C9.5,277.3,9,271,9,268.1c0,1.1-0.1,2.5-0.2,3.1l-1.3-11.6c0.4-1.8,0.7-0.4,0.9,1.1
						c-0.1-2.4-0.5-4-0.6-7.4c0.8,0.9,1.6,0.7,2,5.6l-0.9-11.1c0.3-0.7,0.9-5.7,1.2-4.2c0.5-6.1-1.5-15-0.9-23.2
						c-0.2-0.4-0.3-1.3-0.4-3c0.2-7.6,1.1-14.4,0.1-23.5l1.4-5.1c-0.3-7.1-1.8,7-2.3-4.9c-0.4-8.4,1.2-3.1,1.6-6.1
						c-0.7-4.2-2.2-11.4-1-19.1C8.7,161.3,8.5,163.3,8.6,165.7z M8,78.2c0.2,1.7,0.8,5.1,0.3,6.3C7.2,82.6,7.7,81.1,8,78.2z M61,4.7
						c-1.3,0.3-3.2,0.2-5.4-0.2C57.2,4.4,59,4.4,61,4.7z M361.9,76.8c0-0.1,0-0.1,0-0.2C362.2,72.9,362.1,74.2,361.9,76.8z
						 M361.5,84.7c0.1,0.8,0.3,0.7,0.4,0.4c-0.2-0.5-0.3-2.3-0.2-4.3C361.5,81.3,361.3,82.3,361.5,84.7z M58.5,359.1l-1.5-0.3
						C60.5,358.5,59.5,358.8,58.5,359.1z"/>
					<path fill="#FFFFFF" d="M45.9,6c-0.5-0.2-0.6-0.3-0.7-0.5C44.6,5.6,44.5,5.8,45.9,6z"/>
					<path fill="#FFFFFF" d="M9.1,220.1l0,0.3c0.1,0.1,0.1,0.2,0.2,0.3L9.1,220.1z"/>
					<path fill="#FFFFFF" d="M317.7,6.6c-1.6-0.1-2.5-0.3-3.1-0.5C314.5,6.3,315.2,6.5,317.7,6.6z"/>
					<path fill="#FFFFFF" d="M363.1,126.3l-0.3-5c0,2.4-0.2,3.3-0.3,4.5C362.8,125.7,363.1,124.7,363.1,126.3z"/>
					<path fill="#FFFFFF" d="M357.2,169.9c0.1,0.7,0,1.6,0.1,2.3l0.4-0.2C357.7,168.9,357.4,166.7,357.2,169.9z"/>
					<path fill="#FFFFFF" d="M359.9,130.9c-0.8,0.4-0.5,3.6-0.4,7.1c0-0.2,0-0.4,0-0.6C360.7,138.4,360.3,134.7,359.9,130.9z"/>
					<path fill="#FFFFFF" d="M359.6,138.8c0,1.1,0.1,2.2,0,3.3C360,142.5,359.7,140.8,359.6,138.8z"/>
					<path fill="#FFFFFF" d="M362,94.6c-0.2,1.7,1,1,0.7,2C363.8,98.5,361.5,85.5,362,94.6z"/>
					<polygon fill="#FFFFFF" points="357.3,133.8 358.3,132.5 357.4,130.6 					"/>
					<path fill="#FFFFFF" d="M358,106l-0.3,5.6c0.2-0.1,0.3,0.6,0.3,1.5C358.1,109.6,358.3,105.8,358,106z"/>
					<path fill="#FFFFFF" d="M358.1,113.1c0,1.8,0,3.5,0.2,4.5C358.2,116.7,358.2,114.6,358.1,113.1z"/>
					<polygon fill="#FFFFFF" points="357,126.1 357.2,124.4 357.2,120.5 					"/>
					<path fill="#FFFFFF" d="M358.2,45.5l-0.3-6.1c-0.3-0.6-0.6,1-0.4,3.3C357.7,44.1,357.9,46.4,358.2,45.5z"/>
					<path fill="#FFFFFF" d="M355.4,64c0.2-1.7,0.4-1.8,0.8-2.7l-1.2-0.2L355.4,64z"/>
					<path fill="#FFFFFF" d="M355.1,46.1c-0.3-0.6-1-8.9-0.9-1.1C354.6,45.6,354.9,51.8,355.1,46.1z"/>
					<polygon fill="#FFFFFF" points="308.2,3.2 309.8,3.1 309.5,1.1 					"/>
					<path fill="#FFFFFF" d="M226.6,8c7.3,0.5,1.7-1.3,8.3-0.6c1.7-0.5-5.4-0.5-3.6-0.9C226.9,7,224.6,6.7,226.6,8z"/>
					<path fill="#FFFFFF" d="M231.3,6.5c0.7-0.1,1.4-0.2,2.2-0.3C232.3,6.3,231.7,6.4,231.3,6.5z"/>
					<polygon fill="#FFFFFF" points="344.3,360.1 349,360.5 346,359.8 					"/>
					<path fill="#FFFFFF" d="M353.3,358.6l1.1,1.3l2.8-1.2C356.2,358.8,354.1,358.9,353.3,358.6z"/>
					<path fill="#FFFFFF" d="M10.6,65.2l-0.3-0.4c-0.3,0.7-0.4,1.8-0.4,4L10.6,65.2z"/>
					<polygon fill="#FFFFFF" points="9.7,128.7 9.7,127.6 8.5,129.6 					"/>
					<path fill="#FFFFFF" d="M11.2,182c0-2.2-0.2-4.7-0.2-6.9C11.2,179.8,9.7,182.6,11.2,182z"/>
				</g>
			</g>
		</g>
	</g>
</g>
</svg>
